<svg xmlns="http://www.w3.org/2000/svg" width="1453" height="534" viewBox="0 0 1453 534"><g transform="translate(-8317 -5115)"><rect width="1453" height="534" transform="translate(8317 5115)" fill="#f8f8f8"/><g transform="translate(8361 -925)"><g transform="translate(65 6107.919)"><text transform="translate(58 14.081)" fill="#242424" font-size="14" font-family="IBMPlexSans-Bold, IBM Plex Sans" font-weight="700"><tspan x="0" y="0">Rallies</tspan></text><g transform="translate(0 41.264)"><g transform="translate(0 0)"><rect width="77" height="69" transform="translate(0 -0.183)" fill="#889fff"/><text transform="translate(5 13.817)" font-size="9" font-family="IBMPlexSans, IBM Plex Sans"><tspan x="0" y="9">I want to see </tspan><tspan x="0" y="21">the short and </tspan><tspan x="0" y="33">long rallies</tspan></text><rect width="77" height="11" transform="translate(0 -0.183)" stroke="rgba(0,0,0,0)" stroke-width="1" opacity="0.35" style="mix-blend-mode:overlay;isolation:isolate"/></g><g transform="translate(81.568 0)"><rect width="78" height="83" transform="translate(0.432 -0.183)" fill="#889fff"/><text transform="translate(6.432 12.817)" font-size="9" font-family="IBMPlexSans, IBM Plex Sans"><tspan x="0" y="9">I wish to see </tspan><tspan x="0" y="21">the different </tspan><tspan x="0" y="33">points and </tspan><tspan x="0" y="45">shots in the </tspan><tspan x="0" y="57">rallies</tspan></text><rect width="78" height="11" transform="translate(0.432 -0.183)" stroke="rgba(0,0,0,0)" stroke-width="1" opacity="0.35" style="mix-blend-mode:overlay;isolation:isolate"/></g></g></g><g transform="translate(707.95 6107.919)"><text transform="translate(62.05 14.081)" fill="#242424" font-size="14" font-family="IBMPlexSans-Bold, IBM Plex Sans" font-weight="700"><tspan x="0" y="0">Court</tspan></text><g transform="translate(0 41.264)"><g transform="translate(0 0)"><rect width="77" height="68" transform="translate(0.05 -0.183)" fill="#cae038"/><text transform="translate(5.05 13.817)" font-size="9" font-family="IBMPlexSans, IBM Plex Sans"><tspan x="0" y="9">Hard to relate </tspan><tspan x="0" y="21">the points with </tspan><tspan x="0" y="33">the match</tspan></text><rect width="77" height="9" transform="translate(0.05 -0.183)" stroke="rgba(0,0,0,0)" stroke-width="1" opacity="0.35" style="mix-blend-mode:overlay;isolation:isolate"/></g><g transform="translate(0 73.891)"><rect width="77" height="65" transform="translate(0.05 -0.075)" fill="#cae038"/><text transform="translate(5.05 11.925)" font-size="9" font-family="IBMPlexSans, IBM Plex Sans"><tspan x="0" y="9">Ball trajectory </tspan><tspan x="0" y="21">will help clearly </tspan><tspan x="0" y="33">indicate the rally</tspan></text><rect width="77" height="11" transform="translate(0.05 -0.075)" stroke="rgba(0,0,0,0)" stroke-width="1" opacity="0.35" style="mix-blend-mode:overlay;isolation:isolate"/></g><g transform="translate(0 145.863)"><rect width="77" height="71" transform="translate(0.05 -0.047)" fill="#cae038"/><text transform="translate(5.05 10.953)" font-size="9" font-family="IBMPlexSans, IBM Plex Sans"><tspan x="0" y="9">I wish to see the </tspan><tspan x="0" y="21">shot and its </tspan><tspan x="0" y="33">details</tspan></text><rect width="77" height="9" transform="translate(0.05 -0.047)" stroke="rgba(0,0,0,0)" stroke-width="1" opacity="0.35" style="mix-blend-mode:overlay;isolation:isolate"/></g><g transform="translate(80.609 0)"><rect width="79" height="68" transform="translate(0.441 -0.183)" fill="#cae038"/><text transform="translate(6.441 12.817)" font-size="9" font-family="IBMPlexSans, IBM Plex Sans"><tspan x="0" y="9">Data population </tspan><tspan x="0" y="21">on the court is </tspan><tspan x="0" y="33">hard to interpret</tspan></text><rect width="79" height="9" transform="translate(0.441 -0.183)" stroke="rgba(0,0,0,0)" stroke-width="1" opacity="0.35" style="mix-blend-mode:overlay;isolation:isolate"/></g><g transform="translate(80.609 73.891)"><rect width="79" height="70" transform="translate(0.441 -0.075)" fill="#cae038"/><text transform="translate(6.441 11.925)" font-size="9" font-family="IBMPlexSans, IBM Plex Sans"><tspan x="0" y="9">I want to see </tspan><tspan x="0" y="21">the position of </tspan><tspan x="0" y="33">resulted points </tspan><tspan x="0" y="45">I wish to select</tspan></text><rect width="79" height="11" transform="translate(0.441 -0.075)" stroke="rgba(0,0,0,0)" stroke-width="1" opacity="0.35" style="mix-blend-mode:overlay;isolation:isolate"/></g></g></g><g transform="translate(494.913 6107.919)"><text transform="translate(38.087 14.081)" fill="#242424" font-size="14" font-family="IBMPlexSans-Bold, IBM Plex Sans" font-weight="700"><tspan x="0" y="0">Stroke types</tspan></text><g transform="translate(0 41.264)"><g transform="translate(0 0)"><rect width="77" height="69" transform="translate(0.087 -0.183)" fill="#ffac80"/><text transform="translate(4.087 21.817)" font-size="9" font-family="IBMPlexSans, IBM Plex Sans"><tspan x="0" y="0">I want to see the </tspan><tspan x="0" y="12">different stroke </tspan><tspan x="0" y="24">types played by </tspan><tspan x="0" y="36">the player</tspan></text><rect width="77" height="11" transform="translate(0.087 -0.183)" stroke="rgba(0,0,0,0)" stroke-width="1" opacity="0.35" style="mix-blend-mode:overlay;isolation:isolate"/></g><g transform="translate(0 73.891)"><rect width="77" height="71" transform="translate(0.087 -0.075)" fill="#ffac80"/><text transform="translate(6.087 20.926)" font-size="9" font-family="IBMPlexSans, IBM Plex Sans"><tspan x="0" y="0">The percentage </tspan><tspan x="0" y="12">of success stroke </tspan></text><rect width="77" height="9" transform="translate(0.087 -0.075)" stroke="rgba(0,0,0,0)" stroke-width="1" opacity="0.35" style="mix-blend-mode:overlay;isolation:isolate"/></g><g transform="translate(80.608 149.702)"><rect width="78" height="69" transform="translate(0.479 0.115)" fill="#ffac80"/><text transform="translate(5.389 20.861)" font-size="9" font-family="IBMPlexSans, IBM Plex Sans"><tspan x="0" y="0">Comparing other </tspan><tspan x="0" y="12">tournament </tspan><tspan x="0" y="24">results</tspan></text><rect width="78" height="9" transform="translate(0.479 0.115)" stroke="rgba(0,0,0,0)" stroke-width="1" opacity="0.35" style="mix-blend-mode:overlay;isolation:isolate"/></g><g transform="translate(80.609 0)"><rect width="78" height="69" transform="translate(0.478 -0.183)" fill="#ffac80"/><text transform="translate(5.478 20.817)" font-size="9" font-family="IBMPlexSans, IBM Plex Sans"><tspan x="0" y="0">I wish I could </tspan><tspan x="0" y="12">see the points </tspan><tspan x="0" y="24">gained on </tspan><tspan x="0" y="36">particular shots</tspan></text><rect width="78" height="11" transform="translate(0.478 -0.183)" stroke="rgba(0,0,0,0)" stroke-width="1" opacity="0.35" style="mix-blend-mode:overlay;isolation:isolate"/></g><g transform="translate(80.609 73.891)"><rect width="78" height="71" transform="translate(0.478 -0.075)" fill="#ffac80"/><text transform="translate(5.478 20.926)" font-size="9" font-family="IBMPlexSans, IBM Plex Sans"><tspan x="0" y="0">Best shot by the </tspan><tspan x="0" y="12">player in the </tspan><tspan x="0" y="24">match</tspan></text><rect width="78" height="9" transform="translate(0.478 -0.075)" stroke="rgba(0,0,0,0)" stroke-width="1" opacity="0.35" style="mix-blend-mode:overlay;isolation:isolate"/></g></g></g><g transform="translate(922.907 6108)"><text transform="translate(35.093 14)" fill="#242424" font-size="14" font-family="IBMPlexSans-Bold, IBM Plex Sans" font-weight="700"><tspan x="0" y="0">Player details</tspan></text><g transform="translate(0 41.264)"><g transform="translate(0 0)"><rect width="80" height="69" transform="translate(0.093 -0.264)" fill="#f89b39"/><text transform="translate(7.093 23.736)" font-size="9" font-family="IBMPlexSans, IBM Plex Sans"><tspan x="0" y="0">I want to see </tspan><tspan x="0" y="12">the player&apos;s </tspan><tspan x="0" y="24">career </tspan></text><rect width="80" height="11" transform="translate(0.093 -0.264)" stroke="rgba(0,0,0,0)" stroke-width="1" opacity="0.35" style="mix-blend-mode:overlay;isolation:isolate"/></g><g transform="translate(0 73.891)"><rect width="80" height="71" transform="translate(0.093 -0.156)" fill="#f89b39"/><text transform="translate(7.093 12.845)" font-size="9" font-family="IBMPlexSans, IBM Plex Sans"><tspan x="0" y="9">I want to </tspan><tspan x="0" y="21">see the </tspan><tspan x="0" y="33">demographics</tspan></text><rect width="80" height="9" transform="translate(0.093 -0.156)" stroke="rgba(0,0,0,0)" stroke-width="1" opacity="0.35" style="mix-blend-mode:overlay;isolation:isolate"/></g><g transform="translate(0 149.702)"><rect width="80" height="69" transform="translate(0.093 0.034)" fill="#f89b39"/><text transform="translate(7.093 22.034)" font-size="9" font-family="IBMPlexSans, IBM Plex Sans"><tspan x="0" y="0">Meeting any Top </tspan><tspan x="0" y="12">players in </tspan><tspan x="0" y="24">matches </tspan><tspan x="0" y="36"></tspan></text><rect width="80" height="9" transform="translate(0.093 0.034)" stroke="rgba(0,0,0,0)" stroke-width="1" opacity="0.35" style="mix-blend-mode:overlay;isolation:isolate"/></g><g transform="translate(83.487 149.702)"><rect width="76" height="69" transform="translate(-0.394 0.034)" fill="#f89b39"/><text transform="translate(3.606 13.034)" font-size="9" font-family="IBMPlexSans, IBM Plex Sans"><tspan x="0" y="9">News about </tspan><tspan x="0" y="21">the player</tspan></text><rect width="76" height="9" transform="translate(-0.394 0.034)" stroke="rgba(0,0,0,0)" stroke-width="1" opacity="0.35" style="mix-blend-mode:overlay;isolation:isolate"/></g><g transform="translate(83.487 0)"><rect width="76" height="69" transform="translate(-0.394 -0.264)" fill="#f89b39"/><text transform="translate(3.606 14.736)" font-size="9" font-family="IBMPlexSans, IBM Plex Sans"><tspan x="0" y="9">I wish to see </tspan><tspan x="0" y="21">the biographic </tspan><tspan x="0" y="33">info.</tspan></text><rect width="76" height="11" transform="translate(-0.394 -0.264)" stroke="rgba(0,0,0,0)" stroke-width="1" opacity="0.35" style="mix-blend-mode:overlay;isolation:isolate"/></g><g transform="translate(83.487 73.891)"><rect width="76" height="71" transform="translate(-0.394 -0.156)" fill="#f89b39"/><text transform="translate(3.606 21.845)" font-size="9" font-family="IBMPlexSans, IBM Plex Sans"><tspan x="0" y="0">Matches </tspan><tspan x="0" y="12">played </tspan></text><rect width="76" height="9" transform="translate(-0.394 -0.156)" stroke="rgba(0,0,0,0)" stroke-width="1" opacity="0.35" style="mix-blend-mode:overlay;isolation:isolate"/></g></g></g><g transform="translate(279.957 6107.919)"><text transform="translate(45.043 14.081)" fill="#242424" font-size="14" font-family="IBMPlexSans-Bold, IBM Plex Sans" font-weight="700"><tspan x="0" y="0">End points</tspan></text><g transform="translate(0 41.264)"><g transform="translate(0 0)"><rect width="79" height="69" transform="translate(0.043 -0.183)" fill="#ffd86f"/><text transform="translate(7.043 12.817)" font-size="9" font-family="IBMPlexSans, IBM Plex Sans"><tspan x="0" y="9">To know </tspan><tspan x="0" y="21">more about </tspan><tspan x="0" y="33">the endpoint </tspan><tspan x="0" y="45">result</tspan></text><rect width="79" height="11" transform="translate(0.043 -0.183)" stroke="rgba(0,0,0,0)" stroke-width="1" opacity="0.35" style="mix-blend-mode:overlay;isolation:isolate"/></g><g transform="translate(84.446 0)"><rect width="76" height="69" transform="translate(-0.403 -0.183)" fill="#ffd86f"/><text transform="translate(3.597 12.817)" font-size="9" font-family="IBMPlexSans, IBM Plex Sans"><tspan x="0" y="9">I want to see </tspan><tspan x="0" y="21">the rally </tspan><tspan x="0" y="33">length </tspan></text><rect width="76" height="11" transform="translate(-0.403 -0.183)" stroke="rgba(0,0,0,0)" stroke-width="1" opacity="0.35" style="mix-blend-mode:overlay;isolation:isolate"/></g><g transform="translate(0 71.013)"><rect width="79" height="72" transform="translate(0.043 -0.196)" fill="#ffd86f"/><text transform="translate(7.043 13.804)" font-size="9" font-family="IBMPlexSans, IBM Plex Sans"><tspan x="0" y="9">I want to know </tspan><tspan x="0" y="21">about the </tspan><tspan x="0" y="33">serve speed</tspan></text><rect width="79" height="10" transform="translate(0.043 -0.196)" stroke="rgba(0,0,0,0)" stroke-width="1" opacity="0.35" style="mix-blend-mode:overlay;isolation:isolate"/></g><g transform="translate(0 145.864)"><rect width="79" height="68" transform="translate(0.043 -0.047)" fill="#ffd86f"/><text transform="translate(7.043 11.953)" font-size="9" font-family="IBMPlexSans, IBM Plex Sans"><tspan x="0" y="9">I want to see </tspan><tspan x="0" y="21">the point </tspan><tspan x="0" y="33">winner</tspan></text><rect width="79" height="10" transform="translate(0.043 -0.047)" stroke="rgba(0,0,0,0)" stroke-width="1" opacity="0.35" style="mix-blend-mode:overlay;isolation:isolate"/></g><g transform="translate(0 218.795)"><rect width="79" height="66" transform="translate(0.043 0.022)" fill="#ffd86f"/><text transform="translate(7.043 12.021)" font-size="9" font-family="IBMPlexSans, IBM Plex Sans"><tspan x="0" y="9">I wish to see the </tspan><tspan x="0" y="21">breakpoint </tspan><tspan x="0" y="33">conversions</tspan></text><rect width="79" height="10" transform="translate(0.043 0.022)" stroke="rgba(0,0,0,0)" stroke-width="1" opacity="0.35" style="mix-blend-mode:overlay;isolation:isolate"/></g><g transform="translate(0 289.807)"><rect width="79" height="67" transform="translate(0.043 0.009)" fill="#ffd86f"/><text transform="translate(7.043 12.009)" font-size="9" font-family="IBMPlexSans, IBM Plex Sans"><tspan x="0" y="9">I wish to see a </tspan><tspan x="0" y="21">glimpse of the </tspan><tspan x="0" y="33">game and set</tspan></text><rect width="79" height="11" transform="translate(0.043 0.009)" stroke="rgba(0,0,0,0)" stroke-width="1" opacity="0.35" style="mix-blend-mode:overlay;isolation:isolate"/></g><g transform="translate(84.446 71.013)"><rect width="76" height="72" transform="translate(-0.403 -0.196)" fill="#ffd86f"/><text transform="translate(3.597 13.804)" font-size="9" font-family="IBMPlexSans, IBM Plex Sans"><tspan x="0" y="9">I also want to </tspan><tspan x="0" y="21">see the serve </tspan><tspan x="0" y="33">shot #</tspan></text><rect width="76" height="10" transform="translate(-0.403 -0.196)" stroke="rgba(0,0,0,0)" stroke-width="1" opacity="0.35" style="mix-blend-mode:overlay;isolation:isolate"/></g><g transform="translate(84.446 145.864)"><rect width="76" height="68" transform="translate(-0.403 -0.047)" fill="#ffd86f"/><text transform="translate(3.597 11.953)" font-size="9" font-family="IBMPlexSans, IBM Plex Sans"><tspan x="0" y="9">I want to see </tspan><tspan x="0" y="21">the broken </tspan><tspan x="0" y="33">game</tspan></text><rect width="76" height="10" transform="translate(-0.403 -0.047)" stroke="rgba(0,0,0,0)" stroke-width="1" opacity="0.35" style="mix-blend-mode:overlay;isolation:isolate"/></g><g transform="translate(84.446 218.795)"><rect width="76" height="66" transform="translate(-0.403 0.022)" fill="#ffd86f"/><text transform="translate(3.597 12.021)" font-size="9" font-family="IBMPlexSans, IBM Plex Sans"><tspan x="0" y="9">I wish I could </tspan><tspan x="0" y="21">see the game </tspan><tspan x="0" y="33">duration</tspan></text><rect width="76" height="10" transform="translate(-0.403 0.022)" stroke="rgba(0,0,0,0)" stroke-width="1" opacity="0.35" style="mix-blend-mode:overlay;isolation:isolate"/></g><g transform="translate(84.446 289.808)"><rect width="76" height="67" transform="translate(-0.403 0.009)" fill="#ffd86f"/><text transform="translate(3.597 12.009)" font-size="9" font-family="IBMPlexSans, IBM Plex Sans"><tspan x="0" y="9">Video clips for </tspan><tspan x="0" y="21">the points</tspan></text><rect width="76" height="10" transform="translate(-0.403 0.009)" stroke="rgba(0,0,0,0)" stroke-width="1" opacity="0.35" style="mix-blend-mode:overlay;isolation:isolate"/></g></g></g><g transform="translate(1136.904 6108)"><g transform="translate(0 41.264)"><g transform="translate(0 0)"><rect width="81" height="69" transform="translate(0.096 -0.264)" fill="#f88"/><text transform="translate(7.096 23.736)" font-size="9" font-family="IBMPlexSans, IBM Plex Sans"><tspan x="0" y="0">Discuss with </tspan><tspan x="0" y="12">friends about the </tspan><tspan x="0" y="24">matches</tspan></text><rect width="81" height="11" transform="translate(0.096 -0.264)" stroke="rgba(0,0,0,0)" stroke-width="1" opacity="0.35" style="mix-blend-mode:overlay;isolation:isolate"/></g><g transform="translate(0 73.891)"><rect width="81" height="71" transform="translate(0.096 -0.156)" fill="#f88"/><text transform="translate(7.096 23.845)" font-size="9" font-family="IBMPlexSans, IBM Plex Sans"><tspan x="0" y="0">Sharing matches </tspan><tspan x="0" y="12">and results in </tspan><tspan x="0" y="24">social platforms</tspan></text><rect width="81" height="9" transform="translate(0.096 -0.156)" stroke="rgba(0,0,0,0)" stroke-width="1" opacity="0.35" style="mix-blend-mode:overlay;isolation:isolate"/></g><g transform="translate(0 149.702)"><rect width="81" height="69" transform="translate(0.096 0.034)" fill="#f88"/><text transform="translate(7.096 13.034)" font-size="9" font-family="IBMPlexSans, IBM Plex Sans"><tspan x="0" y="9">Writing </tspan><tspan x="0" y="21">comments </tspan><tspan x="0" y="33">on social </tspan><tspan x="0" y="45">platforms</tspan></text><rect width="81" height="9" transform="translate(0.096 0.034)" stroke="rgba(0,0,0,0)" stroke-width="1" opacity="0.35" style="mix-blend-mode:overlay;isolation:isolate"/></g><g transform="translate(84.447 0)"><rect width="80" height="69" transform="translate(-0.351 -0.264)" fill="#f88"/><text transform="translate(5.649 23.736)" font-size="9" font-family="IBMPlexSans, IBM Plex Sans"><tspan x="0" y="0">Discuss the </tspan><tspan x="0" y="12">players</tspan></text><rect width="80" height="11" transform="translate(-0.351 -0.264)" stroke="rgba(0,0,0,0)" stroke-width="1" opacity="0.35" style="mix-blend-mode:overlay;isolation:isolate"/></g><g transform="translate(84.447 73.891)"><rect width="80" height="71" transform="translate(-0.351 -0.156)" fill="#f88"/><text transform="translate(4.649 23.845)" font-size="9" font-family="IBMPlexSans, IBM Plex Sans"><tspan x="0" y="0">Reading blogs</tspan></text><rect width="80" height="9" transform="translate(-0.351 -0.156)" stroke="rgba(0,0,0,0)" stroke-width="1" opacity="0.35" style="mix-blend-mode:overlay;isolation:isolate"/></g><g transform="translate(85.407 149.702)"><rect width="79" height="69" transform="translate(-0.311 0.034)" fill="#f88"/><text transform="translate(5.69 22.034)" font-size="9" font-family="IBMPlexSans, IBM Plex Sans"><tspan x="0" y="0">Player patterns </tspan><tspan x="0" y="12">followed in the </tspan><tspan x="0" y="24">match</tspan></text><rect width="79" height="9" transform="translate(-0.311 0.034)" stroke="rgba(0,0,0,0)" stroke-width="1" opacity="0.35" style="mix-blend-mode:overlay;isolation:isolate"/></g></g><text transform="translate(60.096 14)" fill="#242424" font-size="14" font-family="IBMPlexSans-Bold, IBM Plex Sans" font-weight="700"><tspan x="0" y="0">Others</tspan></text></g></g></g></svg>