<svg xmlns="http://www.w3.org/2000/svg" width="2153.021" height="920" viewBox="0 0 2153.021 920"><g transform="translate(-6785 -6908)"><rect width="2153.021" height="920" transform="translate(6785 6908)" fill="#f2f2f2"/><g transform="translate(-12706 3816)"><path d="M12196,15966.347h1653" transform="translate(7526.499 -12655.108)" fill="none" stroke="gray" stroke-linecap="round" stroke-linejoin="round" stroke-width="2"/><path d="M12195.465,15151.975l.535,117" transform="translate(7469.535 -11754.975)" fill="none" stroke="gray" stroke-linecap="round" stroke-linejoin="round" stroke-width="2"/><text transform="translate(19693 3479)" fill="#272727" font-size="14" font-family="IBMPlexSans-Medium, IBM Plex Sans" font-weight="500"><tspan x="0" y="0">Set Points</tspan></text><path d="M12196,15966.347h16" transform="translate(7469.499 -12491.847)" fill="none" stroke="gray" stroke-linecap="round" stroke-linejoin="round" stroke-width="2"/><circle cx="3.5" cy="3.5" r="3.5" transform="translate(19678 3471)" fill="gray"/><text transform="translate(19693 3519)" fill="#272727" font-size="14" font-family="IBMPlexSans-Medium, IBM Plex Sans" font-weight="500"><tspan x="0" y="0">Match Info</tspan></text><path d="M12196,15966.347h16" transform="translate(7469.499 -12451.847)" fill="none" stroke="gray" stroke-linecap="round" stroke-linejoin="round" stroke-width="2"/><circle cx="3.5" cy="3.5" r="3.5" transform="translate(19678 3511)" fill="gray"/><g transform="translate(206)"><path d="M12195.465,15151.973l.535,213" transform="translate(7469.535 -11754.975)" fill="none" stroke="gray" stroke-linecap="round" stroke-linejoin="round" stroke-width="2"/><text transform="translate(19693 3466)" fill="#272727" font-size="14" font-family="IBMPlexSans-Medium, IBM Plex Sans" font-weight="500"><tspan x="0" y="14">Complete Match </tspan><tspan x="0" y="32">Details</tspan></text><path d="M12196,15966.347h16" transform="translate(7469.499 -12491.847)" fill="none" stroke="gray" stroke-linecap="round" stroke-linejoin="round" stroke-width="2"/><circle cx="3.5" cy="3.5" r="3.5" transform="translate(19678 3471)" fill="gray"/><g transform="translate(0 56)"><text transform="translate(19693 3466)" fill="#272727" font-size="14" font-family="IBMPlexSans-Medium, IBM Plex Sans" font-weight="500"><tspan x="0" y="14">Filters and Sort</tspan></text><path d="M12196,15966.347h16" transform="translate(7469.499 -12491.847)" fill="none" stroke="gray" stroke-linecap="round" stroke-linejoin="round" stroke-width="2"/><circle cx="3.5" cy="3.5" r="3.5" transform="translate(19678 3471)" fill="gray"/></g><g transform="translate(0 96)"><text transform="translate(19693 3466)" fill="#272727" font-size="14" font-family="IBMPlexSans-Medium, IBM Plex Sans" font-weight="500"><tspan x="0" y="14">Social Sharing</tspan></text><path d="M12196,15966.347h16" transform="translate(7469.499 -12491.847)" fill="none" stroke="gray" stroke-linecap="round" stroke-linejoin="round" stroke-width="2"/><circle cx="3.5" cy="3.5" r="3.5" transform="translate(19678 3471)" fill="gray"/></g><g transform="translate(0 136)"><text transform="translate(19693 3479)" fill="#272727" font-size="14" font-family="IBMPlexSans-Medium, IBM Plex Sans" font-weight="500"><tspan x="0" y="0">UI Hint</tspan></text><path d="M12196,15966.347h16" transform="translate(7469.499 -12491.847)" fill="none" stroke="gray" stroke-linecap="round" stroke-linejoin="round" stroke-width="2"/><circle cx="3.5" cy="3.5" r="3.5" transform="translate(19678 3471)" fill="gray"/></g></g><g transform="translate(406)"><path d="M12195.465,15151.976l.535,269" transform="translate(7469.535 -11754.975)" fill="none" stroke="gray" stroke-linecap="round" stroke-linejoin="round" stroke-width="2"/><text transform="translate(19693 3466)" fill="#272727" font-size="14" font-family="IBMPlexSans-Medium, IBM Plex Sans" font-weight="500"><tspan x="0" y="14">Statistics</tspan></text><path d="M12196,15966.347h16" transform="translate(7469.499 -12491.847)" fill="none" stroke="gray" stroke-linecap="round" stroke-linejoin="round" stroke-width="2"/><circle cx="3.5" cy="3.5" r="3.5" transform="translate(19678 3471)" fill="gray"/><g transform="translate(0 40)"><text transform="translate(19693 3466)" fill="#272727" font-size="14" font-family="IBMPlexSans-Medium, IBM Plex Sans" font-weight="500"><tspan x="0" y="14">Serve Speed</tspan></text><path d="M12196,15966.347h16" transform="translate(7469.499 -12491.847)" fill="none" stroke="gray" stroke-linecap="round" stroke-linejoin="round" stroke-width="2"/><circle cx="3.5" cy="3.5" r="3.5" transform="translate(19678 3471)" fill="gray"/></g><g transform="translate(0 80)"><text transform="translate(19693 3466)" fill="#272727" font-size="14" font-family="IBMPlexSans-Medium, IBM Plex Sans" font-weight="500"><tspan x="0" y="14">Slam </tspan><tspan x="0" y="32">Leaderboard</tspan></text><path d="M12196,15966.347h16" transform="translate(7469.499 -12491.847)" fill="none" stroke="gray" stroke-linecap="round" stroke-linejoin="round" stroke-width="2"/><circle cx="3.5" cy="3.5" r="3.5" transform="translate(19678 3471)" fill="gray"/></g><g transform="translate(0 136)"><text transform="translate(19693 3466)" fill="#272727" font-size="14" font-family="IBMPlexSans-Medium, IBM Plex Sans" font-weight="500"><tspan x="0" y="14">Filters and </tspan><tspan x="0" y="32">Sort</tspan></text><path d="M12196,15966.347h16" transform="translate(7469.499 -12491.847)" fill="none" stroke="gray" stroke-linecap="round" stroke-linejoin="round" stroke-width="2"/><circle cx="3.5" cy="3.5" r="3.5" transform="translate(19678 3471)" fill="gray"/></g><g transform="translate(0.035 192)"><text transform="translate(19693 3479)" fill="#272727" font-size="14" font-family="IBMPlexSans-Medium, IBM Plex Sans" font-weight="500"><tspan x="0" y="0">UI Hint</tspan></text><path d="M12196,15966.347h16" transform="translate(7469.499 -12491.847)" fill="none" stroke="gray" stroke-linecap="round" stroke-linejoin="round" stroke-width="2"/><circle cx="3.5" cy="3.5" r="3.5" transform="translate(19678 3471)" fill="gray"/></g></g><g transform="translate(1224.104)"><path d="M12195.465,15151.979l.535,237" transform="translate(7469.535 -11754.975)" fill="none" stroke="gray" stroke-linecap="round" stroke-linejoin="round" stroke-width="2"/><text transform="translate(19693 3466)" fill="#272727" font-size="14" font-family="IBMPlexSans-Medium, IBM Plex Sans" font-weight="500"><tspan x="0" y="14">Set 1 Match Details</tspan></text><path d="M12196,15966.347h16" transform="translate(7469.499 -12491.847)" fill="none" stroke="gray" stroke-linecap="round" stroke-linejoin="round" stroke-width="2"/><circle cx="3.5" cy="3.5" r="3.5" transform="translate(19678 3471)" fill="gray"/><g transform="translate(0 37)"><text transform="translate(19693 3482)" fill="#272727" font-size="14" font-family="IBMPlexSans-Medium, IBM Plex Sans" font-weight="500"><tspan x="0" y="0">*</tspan></text><path d="M12196,15966.347h16" transform="translate(7469.499 -12491.847)" fill="none" stroke="gray" stroke-linecap="round" stroke-linejoin="round" stroke-width="2"/><circle cx="3.5" cy="3.5" r="3.5" transform="translate(19678 3471)" fill="gray"/></g><g transform="translate(0 77)"><text transform="translate(19693 3482)" fill="#272727" font-size="14" font-family="IBMPlexSans-Medium, IBM Plex Sans" font-weight="500"><tspan x="0" y="0">*</tspan></text><path d="M12196,15966.347h16" transform="translate(7469.499 -12491.847)" fill="none" stroke="gray" stroke-linecap="round" stroke-linejoin="round" stroke-width="2"/><circle cx="3.5" cy="3.5" r="3.5" transform="translate(19678 3471)" fill="gray"/></g><g transform="translate(0 120)"><text transform="translate(19693 3466)" fill="#272727" font-size="14" font-family="IBMPlexSans-Medium, IBM Plex Sans" font-weight="500"><tspan x="0" y="14">Set N Match Details</tspan></text><path d="M12196,15966.347h16" transform="translate(7469.499 -12491.847)" fill="none" stroke="gray" stroke-linecap="round" stroke-linejoin="round" stroke-width="2"/><circle cx="3.5" cy="3.5" r="3.5" transform="translate(19678 3471)" fill="gray"/></g><g transform="translate(0.5 160)"><text transform="translate(19693 3466)" fill="#272727" font-size="14" font-family="IBMPlexSans-Medium, IBM Plex Sans" font-weight="500"><tspan x="0" y="14">UI Hint</tspan></text><path d="M12196,15966.347h16" transform="translate(7469.499 -12491.847)" fill="none" stroke="gray" stroke-linecap="round" stroke-linejoin="round" stroke-width="2"/><circle cx="3.5" cy="3.5" r="3.5" transform="translate(19678 3471)" fill="gray"/></g></g><g transform="translate(1448.104)"><path d="M12195.465,15151.978l.535,333.5" transform="translate(7469.535 -11754.975)" fill="none" stroke="gray" stroke-linecap="round" stroke-linejoin="round" stroke-width="2"/><text transform="translate(19693 3466)" fill="#272727" font-size="14" font-family="IBMPlexSans-Medium, IBM Plex Sans" font-weight="500"><tspan x="0" y="14">Comparing Bio</tspan></text><path d="M12196,15966.347h16" transform="translate(7469.499 -12491.847)" fill="none" stroke="gray" stroke-linecap="round" stroke-linejoin="round" stroke-width="2"/><circle cx="3.5" cy="3.5" r="3.5" transform="translate(19678 3471)" fill="gray"/><g transform="translate(0 39.5)"><text transform="translate(19693 3479.5)" fill="#272727" font-size="14" font-family="IBMPlexSans-Medium, IBM Plex Sans" font-weight="500"><tspan x="0" y="0">Comparing Stats</tspan></text><path d="M12196,15966.347h16" transform="translate(7469.499 -12491.847)" fill="none" stroke="gray" stroke-linecap="round" stroke-linejoin="round" stroke-width="2"/><circle cx="3.5" cy="3.5" r="3.5" transform="translate(19678 3471)" fill="gray"/></g><g transform="translate(0 77)"><text transform="translate(19693 3482)" fill="#272727" font-size="14" font-family="IBMPlexSans-Medium, IBM Plex Sans" font-weight="500"><tspan x="0" y="0">Average Speed</tspan></text><path d="M12196,15966.347h16" transform="translate(7469.499 -12491.847)" fill="none" stroke="gray" stroke-linecap="round" stroke-linejoin="round" stroke-width="2"/><circle cx="3.5" cy="3.5" r="3.5" transform="translate(19678 3471)" fill="gray"/></g><g transform="translate(0 117)"><text transform="translate(19693 3482)" fill="#272727" font-size="14" font-family="IBMPlexSans-Medium, IBM Plex Sans" font-weight="500"><tspan x="0" y="0">Past Performance</tspan></text><path d="M12196,15966.347h16" transform="translate(7469.499 -12491.847)" fill="none" stroke="gray" stroke-linecap="round" stroke-linejoin="round" stroke-width="2"/><circle cx="3.5" cy="3.5" r="3.5" transform="translate(19678 3471)" fill="gray"/></g><g transform="translate(0 157)"><text transform="translate(19693 3469)" fill="#272727" font-size="14" font-family="IBMPlexSans-Medium, IBM Plex Sans" font-weight="500"><tspan x="0" y="14">Compare other </tspan><tspan x="0" y="32">players</tspan></text><path d="M12196,15966.347h16" transform="translate(7469.499 -12491.847)" fill="none" stroke="gray" stroke-linecap="round" stroke-linejoin="round" stroke-width="2"/><circle cx="3.5" cy="3.5" r="3.5" transform="translate(19678 3471)" fill="gray"/></g><g transform="translate(0.035 216)"><text transform="translate(19693 3466)" fill="#272727" font-size="14" font-family="IBMPlexSans-Medium, IBM Plex Sans" font-weight="500"><tspan x="0" y="14">UI Hint</tspan></text><path d="M12196,15966.347h16" transform="translate(7469.499 -12491.847)" fill="none" stroke="gray" stroke-linecap="round" stroke-linejoin="round" stroke-width="2"/><circle cx="3.5" cy="3.5" r="3.5" transform="translate(19678 3471)" fill="gray"/></g><g transform="translate(0.035 256)"><text transform="translate(19693 3466)" fill="#272727" font-size="14" font-family="IBMPlexSans-Medium, IBM Plex Sans" font-weight="500"><tspan x="0" y="14">Player Profile</tspan></text><path d="M12196,15966.347h16" transform="translate(7469.499 -12491.847)" fill="none" stroke="gray" stroke-linecap="round" stroke-linejoin="round" stroke-width="2"/><circle cx="3.5" cy="3.5" r="3.5" transform="translate(19678 3471)" fill="gray"/></g></g><g transform="translate(1663.104)"><path d="M12195.465,15151.979l.535,116.652" transform="translate(7469.535 -11754.975)" fill="none" stroke="gray" stroke-linecap="round" stroke-linejoin="round" stroke-width="2"/><text transform="translate(19693 3466)" fill="#272727" font-size="14" font-family="IBMPlexSans-Medium, IBM Plex Sans" font-weight="500"><tspan x="0" y="14">Most Popular Tweets</tspan></text><path d="M12196,15966.347h16" transform="translate(7469.499 -12491.847)" fill="none" stroke="gray" stroke-linecap="round" stroke-linejoin="round" stroke-width="2"/><circle cx="3.5" cy="3.5" r="3.5" transform="translate(19678 3471)" fill="gray"/><g transform="translate(0 39.5)"><text transform="translate(19693 3479.5)" fill="#272727" font-size="14" font-family="IBMPlexSans-Medium, IBM Plex Sans" font-weight="500"><tspan x="0" y="0">Social Heat Map</tspan></text><path d="M12196,15966.347h16" transform="translate(7469.499 -12491.847)" fill="none" stroke="gray" stroke-linecap="round" stroke-linejoin="round" stroke-width="2"/><circle cx="3.5" cy="3.5" r="3.5" transform="translate(19678 3471)" fill="gray"/></g></g><path d="M12195.465,15151.977l.535,504.707" transform="translate(8015.535 -11754.975)" fill="none" stroke="gray" stroke-linecap="round" stroke-linejoin="round" stroke-width="2"/><g transform="translate(546 128.788)"><text transform="translate(19693 3466)" fill="#272727" font-size="14" font-family="IBMPlexSans-Medium, IBM Plex Sans" font-weight="500"><tspan x="0" y="14">5 - 8 Shots</tspan></text><path d="M12196,15966.347h16" transform="translate(7469.499 -12491.847)" fill="none" stroke="gray" stroke-linecap="round" stroke-linejoin="round" stroke-width="2"/><circle cx="3.5" cy="3.5" r="3.5" transform="translate(19678 3471)" fill="gray"/></g><g transform="translate(546 257.788)"><text transform="translate(19693 3466)" fill="#272727" font-size="14" font-family="IBMPlexSans-Medium, IBM Plex Sans" font-weight="500"><tspan x="0" y="14">9+ Shots</tspan></text><path d="M12196,15966.347h16" transform="translate(7469.499 -12491.847)" fill="none" stroke="gray" stroke-linecap="round" stroke-linejoin="round" stroke-width="2"/><circle cx="3.5" cy="3.5" r="3.5" transform="translate(19678 3471)" fill="gray"/></g><g transform="translate(545.5 427.709)"><text transform="translate(19693 3466)" fill="#272727" font-size="14" font-family="IBMPlexSans-Medium, IBM Plex Sans" font-weight="500"><tspan x="0" y="14">UI Hint</tspan></text><path d="M12196,15966.347h16" transform="translate(7469.499 -12491.847)" fill="none" stroke="gray" stroke-linecap="round" stroke-linejoin="round" stroke-width="2"/><circle cx="3.5" cy="3.5" r="3.5" transform="translate(19678 3471)" fill="gray"/></g><g transform="translate(546 386.788)"><text transform="translate(19693 3466)" fill="#272727" font-size="14" font-family="IBMPlexSans-Medium, IBM Plex Sans" font-weight="500"><tspan x="0" y="14">Filters And Sort</tspan></text><path d="M12196,15966.347h16" transform="translate(7469.499 -12491.847)" fill="none" stroke="gray" stroke-linecap="round" stroke-linejoin="round" stroke-width="2"/><circle cx="3.5" cy="3.5" r="3.5" transform="translate(19678 3471)" fill="gray"/></g><g transform="translate(-10 -8.178)"><g transform="translate(593 52.111)"><text transform="translate(19693 3466)" fill="#272727" font-size="14" font-family="IBMPlexSans-Medium, IBM Plex Sans" font-weight="500"><tspan x="0" y="14">Brief Points (W, E, UE)</tspan></text><path d="M12196,15966.347h16" transform="translate(7469.499 -12491.847)" fill="none" stroke="gray" stroke-linecap="round" stroke-linejoin="round" stroke-width="2"/><circle cx="3.5" cy="3.5" r="3.5" transform="translate(19678 3471)" fill="gray"/></g><path d="M12195.465,15151.978l.535,31.274" transform="translate(8062.5 -11656.8)" fill="none" stroke="gray" stroke-linecap="round" stroke-linejoin="round" stroke-width="2"/></g><g transform="translate(20 35.756)"><g transform="translate(593 52.111)"><text transform="translate(19693 3466)" fill="#272727" font-size="14" font-family="IBMPlexSans-Medium, IBM Plex Sans" font-weight="500"><tspan x="0" y="14">Detailed Points</tspan></text><path d="M12196,15966.347h16" transform="translate(7469.499 -12491.847)" fill="none" stroke="gray" stroke-linecap="round" stroke-linejoin="round" stroke-width="2"/><circle cx="3.5" cy="3.5" r="3.5" transform="translate(19678 3471)" fill="gray"/></g><path d="M12195.465,15151.978l.535,31.274" transform="translate(8062.5 -11656.8)" fill="none" stroke="gray" stroke-linecap="round" stroke-linejoin="round" stroke-width="2"/></g><g transform="translate(0 129)"><g transform="translate(-10 -8.178)"><g transform="translate(593 52.111)"><text transform="translate(19693 3466)" fill="#272727" font-size="14" font-family="IBMPlexSans-Medium, IBM Plex Sans" font-weight="500"><tspan x="0" y="14">Brief Points (W, E, UE)</tspan></text><path d="M12196,15966.347h16" transform="translate(7469.499 -12491.847)" fill="none" stroke="gray" stroke-linecap="round" stroke-linejoin="round" stroke-width="2"/><circle cx="3.5" cy="3.5" r="3.5" transform="translate(19678 3471)" fill="gray"/></g><path d="M12195.465,15151.978l.535,31.274" transform="translate(8062.5 -11656.8)" fill="none" stroke="gray" stroke-linecap="round" stroke-linejoin="round" stroke-width="2"/></g><g transform="translate(20 35.756)"><g transform="translate(593 52.111)"><text transform="translate(19693 3466)" fill="#272727" font-size="14" font-family="IBMPlexSans-Medium, IBM Plex Sans" font-weight="500"><tspan x="0" y="14">Detailed Points</tspan></text><path d="M12196,15966.347h16" transform="translate(7469.499 -12491.847)" fill="none" stroke="gray" stroke-linecap="round" stroke-linejoin="round" stroke-width="2"/><circle cx="3.5" cy="3.5" r="3.5" transform="translate(19678 3471)" fill="gray"/></g><path d="M12195.465,15151.978l.535,31.274" transform="translate(8062.5 -11656.8)" fill="none" stroke="gray" stroke-linecap="round" stroke-linejoin="round" stroke-width="2"/></g></g><g transform="translate(0 258)"><g transform="translate(-10 -8.178)"><g transform="translate(593 52.111)"><text transform="translate(19693 3466)" fill="#272727" font-size="14" font-family="IBMPlexSans-Medium, IBM Plex Sans" font-weight="500"><tspan x="0" y="14">Brief Points (W, E, UE)</tspan></text><path d="M12196,15966.347h16" transform="translate(7469.499 -12491.847)" fill="none" stroke="gray" stroke-linecap="round" stroke-linejoin="round" stroke-width="2"/><circle cx="3.5" cy="3.5" r="3.5" transform="translate(19678 3471)" fill="gray"/></g><path d="M12195.465,15151.978l.535,31.274" transform="translate(8062.5 -11656.8)" fill="none" stroke="gray" stroke-linecap="round" stroke-linejoin="round" stroke-width="2"/></g><g transform="translate(20 35.756)"><g transform="translate(593 52.111)"><text transform="translate(19693 3466)" fill="#272727" font-size="14" font-family="IBMPlexSans-Medium, IBM Plex Sans" font-weight="500"><tspan x="0" y="14">Detailed Points</tspan></text><path d="M12196,15966.347h16" transform="translate(7469.499 -12491.847)" fill="none" stroke="gray" stroke-linecap="round" stroke-linejoin="round" stroke-width="2"/><circle cx="3.5" cy="3.5" r="3.5" transform="translate(19678 3471)" fill="gray"/></g><path d="M12195.465,15151.978l.535,31.274" transform="translate(8062.5 -11656.8)" fill="none" stroke="gray" stroke-linecap="round" stroke-linejoin="round" stroke-width="2"/></g></g><g transform="translate(546)"><text transform="translate(19693 3466)" fill="#272727" font-size="14" font-family="IBMPlexSans-Medium, IBM Plex Sans" font-weight="500"><tspan x="0" y="14">0 - 4 Shots</tspan></text><path d="M12196,15966.347h16" transform="translate(7469.499 -12491.847)" fill="none" stroke="gray" stroke-linecap="round" stroke-linejoin="round" stroke-width="2"/><circle cx="3.5" cy="3.5" r="3.5" transform="translate(19678 3471)" fill="gray"/></g><g transform="translate(474)"><path d="M12195.465,15151.978l.535,329.1" transform="translate(8015.535 -11754.975)" fill="none" stroke="gray" stroke-linecap="round" stroke-linejoin="round" stroke-width="2"/><g transform="translate(546 84.788)"><text transform="translate(19693 3466)" fill="#272727" font-size="14" font-family="IBMPlexSans-Medium, IBM Plex Sans" font-weight="500"><tspan x="0" y="14">3D Courtvision</tspan></text><path d="M12196,15966.347h16" transform="translate(7469.499 -12491.847)" fill="none" stroke="gray" stroke-linecap="round" stroke-linejoin="round" stroke-width="2"/><circle cx="3.5" cy="3.5" r="3.5" transform="translate(19678 3471)" fill="gray"/></g><g transform="translate(-10 -8.178)"><g transform="translate(593 52.111)"><text transform="translate(19693 3466)" fill="#272727" font-size="14" font-family="IBMPlexSans-Medium, IBM Plex Sans" font-weight="500"><tspan x="0" y="14" xml:space="preserve">Match  Points</tspan></text><path d="M12196,15966.347h16" transform="translate(7469.499 -12491.847)" fill="none" stroke="gray" stroke-linecap="round" stroke-linejoin="round" stroke-width="2"/><circle cx="3.5" cy="3.5" r="3.5" transform="translate(19678 3471)" fill="gray"/></g><path d="M12195.465,15151.978l.535,31.274" transform="translate(8062.5 -11656.8)" fill="none" stroke="gray" stroke-linecap="round" stroke-linejoin="round" stroke-width="2"/></g><g transform="translate(0 84.788)"><g transform="translate(-10 -8.178)"><g transform="translate(593 52.111)"><text transform="translate(19693 3479.5)" fill="#272727" font-size="14" font-family="IBMPlexSans-Medium, IBM Plex Sans" font-weight="500"><tspan x="0" y="0" xml:space="preserve">Match  Points</tspan></text><path d="M12196,15966.347h16" transform="translate(7469.499 -12491.847)" fill="none" stroke="gray" stroke-linecap="round" stroke-linejoin="round" stroke-width="2"/><circle cx="3.5" cy="3.5" r="3.5" transform="translate(19678 3471)" fill="gray"/></g><path d="M12195.465,15151.978l.535,31.274" transform="translate(8062.5 -11656.8)" fill="none" stroke="gray" stroke-linecap="round" stroke-linejoin="round" stroke-width="2"/></g></g><g transform="translate(546)"><text transform="translate(19693 3466)" fill="#272727" font-size="14" font-family="IBMPlexSans-Medium, IBM Plex Sans" font-weight="500"><tspan x="0" y="14">2D Courtvision</tspan></text><path d="M12196,15966.347h16" transform="translate(7469.499 -12491.847)" fill="none" stroke="gray" stroke-linecap="round" stroke-linejoin="round" stroke-width="2"/><circle cx="3.5" cy="3.5" r="3.5" transform="translate(19678 3471)" fill="gray"/></g><g transform="translate(546.5 210.709)"><text transform="translate(19693 3466)" fill="#272727" font-size="14" font-family="IBMPlexSans-Medium, IBM Plex Sans" font-weight="500"><tspan x="0" y="14">UI Hint</tspan></text><path d="M12196,15966.347h16" transform="translate(7469.499 -12491.847)" fill="none" stroke="gray" stroke-linecap="round" stroke-linejoin="round" stroke-width="2"/><circle cx="3.5" cy="3.5" r="3.5" transform="translate(19678 3471)" fill="gray"/></g><g transform="translate(546.5 251.63)"><text transform="translate(19693 3466)" fill="#272727" font-size="14" font-family="IBMPlexSans-Medium, IBM Plex Sans" font-weight="500"><tspan x="0" y="14">Point Stats</tspan></text><path d="M12196,15966.347h16" transform="translate(7469.499 -12491.847)" fill="none" stroke="gray" stroke-linecap="round" stroke-linejoin="round" stroke-width="2"/><circle cx="3.5" cy="3.5" r="3.5" transform="translate(19678 3471)" fill="gray"/></g><g transform="translate(547 169.788)"><text transform="translate(19693 3466)" fill="#272727" font-size="14" font-family="IBMPlexSans-Medium, IBM Plex Sans" font-weight="500"><tspan x="0" y="14">Filters And Sort</tspan></text><path d="M12196,15966.347h16" transform="translate(7469.499 -12491.847)" fill="none" stroke="gray" stroke-linecap="round" stroke-linejoin="round" stroke-width="2"/><circle cx="3.5" cy="3.5" r="3.5" transform="translate(19678 3471)" fill="gray"/></g></g><g transform="translate(224.104)"><path d="M12195.465,15151.979l.535,315.14" transform="translate(8015.535 -11754.975)" fill="none" stroke="gray" stroke-linecap="round" stroke-linejoin="round" stroke-width="2"/><g transform="translate(-10 -8.178)"><g transform="translate(593 52.111)"><text transform="translate(19693 3466)" fill="#272727" font-size="14" font-family="IBMPlexSans-Medium, IBM Plex Sans" font-weight="500"><tspan x="0" y="14">Back Hand</tspan></text><path d="M12196,15966.347h16" transform="translate(7469.499 -12491.847)" fill="none" stroke="gray" stroke-linecap="round" stroke-linejoin="round" stroke-width="2"/><circle cx="3.5" cy="3.5" r="3.5" transform="translate(19678 3471)" fill="gray"/></g><g transform="translate(593 92.111)"><text transform="translate(19693 3466)" fill="#272727" font-size="14" font-family="IBMPlexSans-Medium, IBM Plex Sans" font-weight="500"><tspan x="0" y="14">Fore Hand</tspan></text><path d="M12196,15966.347h16" transform="translate(7469.499 -12491.847)" fill="none" stroke="gray" stroke-linecap="round" stroke-linejoin="round" stroke-width="2"/><circle cx="3.5" cy="3.5" r="3.5" transform="translate(19678 3471)" fill="gray"/></g><g transform="translate(593 132.111)"><text transform="translate(19693 3466)" fill="#272727" font-size="14" font-family="IBMPlexSans-Medium, IBM Plex Sans" font-weight="500"><tspan x="0" y="14">Points</tspan><tspan x="0" y="32">(W, E, UE, Rally </tspan><tspan x="0" y="50">Continued)</tspan></text><path d="M12196,15966.347h16" transform="translate(7469.499 -12491.847)" fill="none" stroke="gray" stroke-linecap="round" stroke-linejoin="round" stroke-width="2"/><circle cx="3.5" cy="3.5" r="3.5" transform="translate(19678 3471)" fill="gray"/></g><path d="M12195.465,15151.977l.535,110.934" transform="translate(8062.5 -11656.8)" fill="none" stroke="gray" stroke-linecap="round" stroke-linejoin="round" stroke-width="2"/></g><g transform="translate(546)"><text transform="translate(19693 3466)" fill="#272727" font-size="14" font-family="IBMPlexSans-Medium, IBM Plex Sans" font-weight="500"><tspan x="0" y="14">Stroke Types</tspan></text><path d="M12196,15966.347h16" transform="translate(7469.499 -12491.847)" fill="none" stroke="gray" stroke-linecap="round" stroke-linejoin="round" stroke-width="2"/><circle cx="3.5" cy="3.5" r="3.5" transform="translate(19678 3471)" fill="gray"/></g><g transform="translate(546.5 237.709)"><text transform="translate(19693 3466)" fill="#272727" font-size="14" font-family="IBMPlexSans-Medium, IBM Plex Sans" font-weight="500"><tspan x="0" y="14">UI Hint</tspan></text><path d="M12196,15966.347h16" transform="translate(7469.499 -12491.847)" fill="none" stroke="gray" stroke-linecap="round" stroke-linejoin="round" stroke-width="2"/><circle cx="3.5" cy="3.5" r="3.5" transform="translate(19678 3471)" fill="gray"/></g><g transform="translate(547 196.788)"><text transform="translate(19693 3466)" fill="#272727" font-size="14" font-family="IBMPlexSans-Medium, IBM Plex Sans" font-weight="500"><tspan x="0" y="14">Filters And Sort</tspan></text><path d="M12196,15966.347h16" transform="translate(7469.499 -12491.847)" fill="none" stroke="gray" stroke-linecap="round" stroke-linejoin="round" stroke-width="2"/><circle cx="3.5" cy="3.5" r="3.5" transform="translate(19678 3471)" fill="gray"/></g></g><path d="M12195.465,15151.977l.535,29.559" transform="translate(7527.035 -11840.738)" fill="none" stroke="gray" stroke-linecap="round" stroke-linejoin="round" stroke-width="2"/><path d="M12195.465,15151.977l.535,29.559" transform="translate(7731.035 -11840.738)" fill="none" stroke="gray" stroke-linecap="round" stroke-linejoin="round" stroke-width="2"/><path d="M12195.465,15151.977l.535,29.559" transform="translate(7899.035 -11840.738)" fill="none" stroke="gray" stroke-linecap="round" stroke-linejoin="round" stroke-width="2"/><path d="M12195.465,15151.977l.535,29.559" transform="translate(8081.035 -11840.738)" fill="none" stroke="gray" stroke-linecap="round" stroke-linejoin="round" stroke-width="2"/><path d="M12195.465,15151.977l.535,29.559" transform="translate(8544.035 -11840.738)" fill="none" stroke="gray" stroke-linecap="round" stroke-linejoin="round" stroke-width="2"/><path d="M12195.465,15151.977l.535,29.559" transform="translate(8763.035 -11840.738)" fill="none" stroke="gray" stroke-linecap="round" stroke-linejoin="round" stroke-width="2"/><path d="M12195.465,15151.977l.535,29.559" transform="translate(8977.035 -11840.738)" fill="none" stroke="gray" stroke-linecap="round" stroke-linejoin="round" stroke-width="2"/><path d="M12195.465,15151.977l.535,29.559" transform="translate(9180.035 -11840.738)" fill="none" stroke="gray" stroke-linecap="round" stroke-linejoin="round" stroke-width="2"/><g transform="translate(14721 -2752.291)"><g transform="translate(5732 5945.291)"><rect width="91" height="59" rx="8" transform="translate(12 -1)" fill="#272727"/><text transform="translate(32 35)" fill="#fff" font-size="18" font-family="IBMPlexSans-Medium, IBM Plex Sans" font-weight="500"><tspan x="0" y="0">HOME</tspan></text></g><path d="M12195.465,15151.977l.535,91.662" transform="translate(-6405.965 -9149.687)" fill="none" stroke="gray" stroke-linecap="round" stroke-linejoin="round" stroke-width="2"/></g><g transform="translate(9)"><g transform="translate(21285 3340)"><rect width="145" height="59" rx="8" transform="translate(12 -1)" fill="#272727"/><text transform="translate(32 35)" fill="#fff" font-size="18" font-family="IBMPlexSans-Medium, IBM Plex Sans" font-weight="500"><tspan x="0" y="0">SOCIAL HUB</tspan></text></g><g transform="translate(21071 3340)"><rect width="167" height="59" rx="8" transform="translate(12 -1)" fill="#272727"/><text transform="translate(32 35)" fill="#fff" font-size="18" font-family="IBMPlexSans-Medium, IBM Plex Sans" font-weight="500"><tspan x="0" y="0">HEAD TO HEAD</tspan></text></g><g transform="translate(20847 3340)"><rect width="175" height="59" rx="8" transform="translate(12 -1)" fill="#272727"/><text transform="translate(32 35)" fill="#fff" font-size="18" font-family="IBMPlexSans-Medium, IBM Plex Sans" font-weight="500"><tspan x="0" y="0">MATCHBEATS++</tspan></text></g><g transform="translate(20642 3340)"><rect width="161" height="59" rx="8" transform="translate(12 -1)" fill="#272727"/><text transform="translate(32 35)" fill="#fff" font-size="18" font-family="IBMPlexSans-Medium, IBM Plex Sans" font-weight="500"><tspan x="0" y="0">COURTVISION</tspan></text></g><g transform="translate(20394 3340)"><rect width="199" height="59" rx="8" transform="translate(12 -1)" fill="#272727"/><text transform="translate(32 35)" fill="#fff" font-size="18" font-family="IBMPlexSans-Medium, IBM Plex Sans" font-weight="500"><tspan x="0" y="0">STROKE SUMMARY</tspan></text></g><g transform="translate(20169 3340)"><rect width="180" height="59" rx="8" transform="translate(12 -1)" fill="#272727"/><text transform="translate(32 35)" fill="#fff" font-size="18" font-family="IBMPlexSans-Medium, IBM Plex Sans" font-weight="500"><tspan x="0" y="0">RALLY ANALYSIS</tspan></text></g><g transform="translate(20029 3340)"><rect width="91" height="59" rx="8" transform="translate(12 -1)" fill="#272727"/><text transform="translate(32 35)" fill="#fff" font-size="18" font-family="IBMPlexSans-Medium, IBM Plex Sans" font-weight="500"><tspan x="0" y="0">STATS</tspan></text></g><g transform="translate(19828 3340)"><rect width="154" height="59" rx="8" transform="translate(12 -1)" fill="#272727"/><text transform="translate(32 35)" fill="#fff" font-size="18" font-family="IBMPlexSans-Medium, IBM Plex Sans" font-weight="500"><tspan x="0" y="0">MATCHBEATS</tspan></text></g><g transform="translate(19623 3340)"><rect width="158" height="59" rx="8" transform="translate(12 -1)" fill="#272727"/><text transform="translate(32 35)" fill="#fff" font-size="18" font-family="IBMPlexSans-Medium, IBM Plex Sans" font-weight="500"><tspan x="0" y="0">SCOREBOARD</tspan></text></g></g></g></g></svg>