<svg xmlns="http://www.w3.org/2000/svg" width="1236" height="640" viewBox="0 0 1236 640"><g transform="translate(-5167 -5905)"><rect width="1236" height="640" transform="translate(5167 5905)" fill="#f8f8f8"/><g transform="translate(5051.106 -1085.533)"><g transform="translate(180.893 7038.534)"><g transform="translate(502.654)"><g transform="translate(1)"><text transform="translate(48.346 37)" fill="#242424" font-size="14" font-family="IBMPlexSans, IBM Plex Sans"><tspan x="-48.139" y="0">Most important</tspan></text><text transform="translate(51.346 14)" fill="#242424" font-size="14" font-family="IBMPlexSans-Bold, IBM Plex Sans" font-weight="700"><tspan x="-18.676" y="0">Users</tspan></text></g><g transform="translate(0 505)"><text transform="translate(50.346 36)" fill="#242424" font-size="14" font-family="IBMPlexSans, IBM Plex Sans"><tspan x="-49.553" y="0">Least important</tspan></text><text transform="translate(52.346 14)" fill="#242424" font-size="14" font-family="IBMPlexSans-Bold, IBM Plex Sans" font-weight="700"><tspan x="-18.676" y="0">Users</tspan></text></g></g><g transform="translate(0 279)"><g transform="translate(1010.158)"><text transform="translate(47.842 37)" fill="#242424" font-size="14" font-family="IBMPlexSans, IBM Plex Sans"><tspan x="-48.139" y="0">Most important</tspan></text><text transform="translate(49.842 14)" fill="#242424" font-size="14" font-family="IBMPlexSans-Bold, IBM Plex Sans" font-weight="700"><tspan x="-29.484" y="0">Business</tspan></text></g><text transform="translate(50 37)" fill="#242424" font-size="14" font-family="IBMPlexSans, IBM Plex Sans"><tspan x="-49.553" y="0">Least important</tspan></text><text transform="translate(51 14)" fill="#242424" font-size="14" font-family="IBMPlexSans-Bold, IBM Plex Sans" font-weight="700"><tspan x="-29.484" y="0">Business</tspan></text></g></g><g transform="translate(486.051 7116.534)"><g transform="translate(0.108 0.07)"><path d="M1786.274,7096.338V7486.2" transform="translate(-1532.218 -7096.338)" fill="none" stroke="#707070" stroke-width="1"/><path d="M0,0V837.136" transform="translate(667.938 231.883) rotate(90)" fill="none" stroke="#707070" stroke-width="1"/></g><g transform="translate(3)"><g transform="translate(157)"><rect width="75" height="68" transform="translate(-0.158 0)" fill="#f89b39"/><text transform="translate(6.842 13)" font-size="9" font-family="IBMPlexSans, IBM Plex Sans"><tspan x="0" y="9">I want to see </tspan><tspan x="0" y="20">the player&apos;s </tspan><tspan x="0" y="31">career </tspan></text><rect width="75" height="10" transform="translate(-0.158 0)" stroke="rgba(0,0,0,0)" stroke-width="1" opacity="0.35" style="mix-blend-mode:overlay;isolation:isolate"/></g><g transform="translate(-79 1)"><rect width="75" height="66" transform="translate(-0.158 0)" fill="#f89b39"/><text transform="translate(2.842 12)" font-size="9" font-family="IBMPlexSans, IBM Plex Sans"><tspan x="0" y="9">I wish to see the </tspan><tspan x="0" y="20">biographic info.</tspan></text><rect width="75" height="10" transform="translate(-0.158 0)" stroke="rgba(0,0,0,0)" stroke-width="1" opacity="0.35" style="mix-blend-mode:overlay;isolation:isolate"/></g><g transform="translate(79)"><rect width="75" height="68" transform="translate(-0.158 0)" fill="#f88"/><text transform="translate(5.842 13)" font-size="9" font-family="IBMPlexSans, IBM Plex Sans"><tspan x="0" y="9">Sharing </tspan><tspan x="0" y="20">matches and </tspan><tspan x="0" y="31">results in </tspan><tspan x="0" y="42">social platforms</tspan><tspan x="0" y="53"></tspan></text><rect width="75" height="8" transform="translate(-0.158 0)" stroke="rgba(0,0,0,0)" stroke-width="1" opacity="0.35" style="mix-blend-mode:overlay;isolation:isolate"/></g><g transform="translate(157 72)"><rect width="75" height="66" transform="translate(-0.158 0)" fill="#ffd86f"/><text transform="translate(3.842 22)" font-size="9" font-family="IBMPlexSans, IBM Plex Sans"><tspan x="0" y="0">I wish I could </tspan><tspan x="0" y="11">see the game </tspan><tspan x="0" y="22">duration</tspan></text><rect width="75" height="9" transform="translate(-0.158 0)" stroke="rgba(0,0,0,0)" stroke-width="1" opacity="0.35" style="mix-blend-mode:overlay;isolation:isolate"/></g><g transform="translate(0)"><rect width="75" height="68" transform="translate(-0.158 0)" fill="#ffd86f"/><text transform="translate(3.842 13)" font-size="9" font-family="IBMPlexSans, IBM Plex Sans"><tspan x="0" y="9">I also want to </tspan><tspan x="0" y="20">see the serve </tspan><tspan x="0" y="31">shot #</tspan></text><rect width="75" height="9" transform="translate(-0.158 0)" stroke="rgba(0,0,0,0)" stroke-width="1" opacity="0.35" style="mix-blend-mode:overlay;isolation:isolate"/></g><g transform="translate(-158 0)"><rect width="75" height="67" transform="translate(-0.158 0)" fill="#ffac80"/><text transform="translate(5.842 13)" font-size="9" font-family="IBMPlexSans, IBM Plex Sans"><tspan x="0" y="9">I wish I could </tspan><tspan x="0" y="20">see the points </tspan><tspan x="0" y="31">gained on </tspan><tspan x="0" y="42">particular shots</tspan></text><rect width="75" height="10" transform="translate(-0.158 0)" stroke="rgba(0,0,0,0)" stroke-width="1" opacity="0.35" style="mix-blend-mode:overlay;isolation:isolate"/></g><g transform="translate(79 72)"><rect width="75" height="66" transform="translate(-0.158 0)" fill="#f89b39"/><text transform="translate(6.842 13)" font-size="9" font-family="IBMPlexSans, IBM Plex Sans"><tspan x="0" y="9">I want to</tspan><tspan x="0" y="20">see the </tspan><tspan x="0" y="31">demographics</tspan></text><rect width="75" height="9" transform="translate(-0.158 0)" stroke="rgba(0,0,0,0)" stroke-width="1" opacity="0.35" style="mix-blend-mode:overlay;isolation:isolate"/></g></g><g transform="translate(277 254)"><g transform="translate(0 0)"><rect width="76" height="65" transform="translate(-0.158 0)" fill="#ffd86f"/><text transform="translate(5.842 21)" font-size="9" font-family="IBMPlexSans, IBM Plex Sans"><tspan x="0" y="0">I want to know </tspan><tspan x="0" y="11">about the serve </tspan><tspan x="0" y="22">speed</tspan></text><rect width="76" height="9" transform="translate(-0.158 0)" stroke="rgba(0,0,0,0)" stroke-width="1" opacity="0.35" style="mix-blend-mode:overlay;isolation:isolate"/></g><g transform="translate(239 0)"><rect width="76" height="65" transform="translate(-0.158 0)" fill="#f89b39"/><text transform="translate(2.842 21)" font-size="9" font-family="IBMPlexSans, IBM Plex Sans"><tspan x="0" y="0">News about the </tspan><tspan x="0" y="11">player</tspan></text><rect width="76" height="9" transform="translate(-0.158 0)" stroke="rgba(0,0,0,0)" stroke-width="1" opacity="0.35" style="mix-blend-mode:overlay;isolation:isolate"/></g><g transform="translate(320 0)"><rect width="74" height="64" transform="translate(-0.158 0)" fill="#f89b39"/><text transform="translate(3.842 21)" font-size="9" font-family="IBMPlexSans, IBM Plex Sans"><tspan x="0" y="0">Matches played </tspan></text><rect width="74" height="9" transform="translate(-0.158 0)" stroke="rgba(0,0,0,0)" stroke-width="1" opacity="0.35" style="mix-blend-mode:overlay;isolation:isolate"/></g><g transform="translate(80)"><rect width="75" height="65" transform="translate(-0.158 0)" fill="#ffac80"/><text transform="translate(5.842 12)" font-size="9" font-family="IBMPlexSans, IBM Plex Sans"><tspan x="0" y="9">I want to see </tspan><tspan x="0" y="21">the different </tspan><tspan x="0" y="33">stroke types </tspan></text><rect width="75" height="10" transform="translate(-0.158 0)" stroke="rgba(0,0,0,0)" stroke-width="1" opacity="0.35" style="mix-blend-mode:overlay;isolation:isolate"/></g><g transform="translate(159)"><rect width="76" height="65" transform="translate(-0.158 0)" fill="#f88"/><text transform="translate(4.842 21)" font-size="9" font-family="IBMPlexSans, IBM Plex Sans"><tspan x="0" y="0">Player patterns </tspan><tspan x="0" y="11">followed in the </tspan><tspan x="0" y="22">match</tspan></text><rect width="76" height="8" transform="translate(-0.158 0)" stroke="rgba(0,0,0,0)" stroke-width="1" opacity="0.35" style="mix-blend-mode:overlay;isolation:isolate"/></g><g transform="translate(0 68)"><rect width="76" height="68" transform="translate(-0.158 0)" fill="#f88"/><text transform="translate(5.842 13)" font-size="9" font-family="IBMPlexSans, IBM Plex Sans"><tspan x="0" y="9">Discuss with </tspan><tspan x="0" y="20">friends about </tspan><tspan x="0" y="31">the matches</tspan></text><rect width="76" height="11" transform="translate(-0.158 0)" stroke="rgba(0,0,0,0)" stroke-width="1" opacity="0.35" style="mix-blend-mode:overlay;isolation:isolate"/></g></g><g transform="translate(277)"><g transform="translate(79 142)"><rect width="75" height="68" transform="translate(-0.158 0)" fill="#889fff"/><text transform="translate(2.842 13)" font-size="9" font-family="IBMPlexSans, IBM Plex Sans"><tspan x="0" y="9">I wish to see the </tspan><tspan x="0" y="20">different points </tspan><tspan x="0" y="31">and shots in the </tspan><tspan x="0" y="42">rallies</tspan></text><rect width="75" height="11" transform="translate(-0.158 0)" stroke="rgba(0,0,0,0)" stroke-width="1" opacity="0.35" style="mix-blend-mode:overlay;isolation:isolate"/></g><g transform="translate(79 71)"><rect width="75" height="68" transform="translate(-0.158 0)" fill="#889fff"/><text transform="translate(4.842 12)" font-size="9" font-family="IBMPlexSans, IBM Plex Sans"><tspan x="0" y="9">I want to see </tspan><tspan x="0" y="20">the short and </tspan><tspan x="0" y="31">long rallies</tspan></text><rect width="75" height="10" transform="translate(-0.158 0)" stroke="rgba(0,0,0,0)" stroke-width="1" opacity="0.35" style="mix-blend-mode:overlay;isolation:isolate"/></g><g transform="translate(158 71)"><rect width="74" height="68" transform="translate(-0.158 0)" fill="#cae038"/><text transform="translate(3.842 12)" font-size="9" font-family="IBMPlexSans, IBM Plex Sans"><tspan x="0" y="9">Ball trajectory </tspan><tspan x="0" y="20">will help clearly </tspan><tspan x="0" y="31">indicate the </tspan><tspan x="0" y="42">rally</tspan></text><rect width="74" height="10" transform="translate(-0.158 0)" stroke="rgba(0,0,0,0)" stroke-width="1" opacity="0.35" style="mix-blend-mode:overlay;isolation:isolate"/></g><g transform="translate(236 1)"><rect width="75" height="67" transform="translate(-0.158 0)" fill="#cae038"/><text transform="translate(4.842 12)" font-size="9" font-family="IBMPlexSans, IBM Plex Sans"><tspan x="0" y="9">I wish to see the </tspan><tspan x="0" y="20">shot and its </tspan><tspan x="0" y="31">details</tspan></text><rect width="75" height="8" transform="translate(-0.158 0)" stroke="rgba(0,0,0,0)" stroke-width="1" opacity="0.35" style="mix-blend-mode:overlay;isolation:isolate"/></g><g transform="translate(158 1)"><rect width="74" height="67" transform="translate(-0.158 0)" fill="#cae038"/><text transform="translate(5.842 12)" font-size="9" font-family="IBMPlexSans, IBM Plex Sans"><tspan x="0" y="9">Data population </tspan><tspan x="0" y="20">on the court is </tspan><tspan x="0" y="31">hard to </tspan><tspan x="0" y="42">interpret</tspan></text><rect width="74" height="8" transform="translate(-0.158 0)" stroke="rgba(0,0,0,0)" stroke-width="1" opacity="0.35" style="mix-blend-mode:overlay;isolation:isolate"/></g><g transform="translate(158 142)"><rect width="74" height="68" transform="translate(-0.158 0)" fill="#cae038"/><text transform="translate(5.842 13)" font-size="9" font-family="IBMPlexSans, IBM Plex Sans"><tspan x="0" y="9">I want to see </tspan><tspan x="0" y="20">the position of </tspan><tspan x="0" y="31">resulted points </tspan><tspan x="0" y="42">I wish to select</tspan></text><rect width="74" height="11" transform="translate(-0.158 0)" stroke="rgba(0,0,0,0)" stroke-width="1" opacity="0.35" style="mix-blend-mode:overlay;isolation:isolate"/></g><g transform="translate(0)"><rect width="76" height="68" transform="translate(-0.158 0)" fill="#ffd86f"/><text transform="translate(5.842 13)" font-size="9" font-family="IBMPlexSans, IBM Plex Sans"><tspan x="0" y="9">To know </tspan><tspan x="0" y="20">more about the </tspan><tspan x="0" y="31">endpoint result</tspan></text><rect width="76" height="10" transform="translate(-0.158 0)" stroke="rgba(0,0,0,0)" stroke-width="1" opacity="0.35" style="mix-blend-mode:overlay;isolation:isolate"/></g><g transform="translate(80 1)"><rect width="74" height="67" transform="translate(-0.158 0)" fill="#ffd86f"/><text transform="translate(3.842 12)" font-size="9" font-family="IBMPlexSans, IBM Plex Sans"><tspan x="0" y="9">I want to see </tspan><tspan x="0" y="20">the broken game</tspan></text><rect width="74" height="9" transform="translate(-0.158 0)" stroke="rgba(0,0,0,0)" stroke-width="1" opacity="0.35" style="mix-blend-mode:overlay;isolation:isolate"/></g><g transform="translate(0 142)"><rect width="75" height="68" transform="translate(-0.158 0)" fill="#ffd86f"/><text transform="translate(5.842 13)" font-size="9" font-family="IBMPlexSans, IBM Plex Sans"><tspan x="0" y="9">I wish to see a </tspan><tspan x="0" y="20">glimpse of the </tspan><tspan x="0" y="31">game and set</tspan></text><rect width="75" height="11" transform="translate(-0.158 0)" stroke="rgba(0,0,0,0)" stroke-width="1" opacity="0.35" style="mix-blend-mode:overlay;isolation:isolate"/></g><g transform="translate(0 71)"><rect width="75" height="68" transform="translate(-0.158 0)" fill="#ffac80"/><text transform="translate(4.88 12)" font-size="9" font-family="IBMPlexSans, IBM Plex Sans"><tspan x="0" y="9">Comparing other </tspan><tspan x="0" y="20">tournament </tspan><tspan x="0" y="31">results</tspan></text><rect width="75" height="9" transform="translate(-0.158 0)" stroke="rgba(0,0,0,0)" stroke-width="1" opacity="0.35" style="mix-blend-mode:overlay;isolation:isolate"/></g><g transform="translate(236 71)"><rect width="75" height="68" transform="translate(-0.158 0)" fill="#ffd86f"/><text transform="translate(6.842 12)" font-size="9" font-family="IBMPlexSans, IBM Plex Sans"><tspan x="0" y="9">I want to see </tspan><tspan x="0" y="20">the point winner</tspan></text><rect width="75" height="9" transform="translate(-0.158 0)" stroke="rgba(0,0,0,0)" stroke-width="1" opacity="0.35" style="mix-blend-mode:overlay;isolation:isolate"/></g><g transform="translate(315 1)"><rect width="76" height="67" transform="translate(-0.158 0)" fill="#ffd86f"/><text transform="translate(5.842 12)" font-size="9" font-family="IBMPlexSans, IBM Plex Sans"><tspan x="0" y="9">I wish to see the </tspan><tspan x="0" y="20">breakpoint </tspan><tspan x="0" y="31">conversions</tspan></text><rect width="76" height="9" transform="translate(-0.158 0)" stroke="rgba(0,0,0,0)" stroke-width="1" opacity="0.35" style="mix-blend-mode:overlay;isolation:isolate"/></g><g transform="translate(315 71)"><rect width="76" height="68" transform="translate(-0.158 0)" fill="#cae038"/><text transform="translate(3.842 12)" font-size="9" font-family="IBMPlexSans, IBM Plex Sans"><tspan x="0" y="9">Hard to relate </tspan><tspan x="0" y="20">the points with </tspan><tspan x="0" y="31">the match</tspan></text><rect width="76" height="9" transform="translate(-0.158 0)" stroke="rgba(0,0,0,0)" stroke-width="1" opacity="0.35" style="mix-blend-mode:overlay;isolation:isolate"/></g></g><g transform="translate(0 254)"><g transform="translate(158)"><rect width="74" height="65" transform="translate(-0.158 0)" fill="#ffd86f"/><text transform="translate(3.842 13)" font-size="9" font-family="IBMPlexSans, IBM Plex Sans"><tspan x="0" y="9">Video clips </tspan><tspan x="0" y="20">for the </tspan><tspan x="0" y="31">points</tspan></text><rect width="74" height="9" transform="translate(-0.158 0)" stroke="rgba(0,0,0,0)" stroke-width="1" opacity="0.35" style="mix-blend-mode:overlay;isolation:isolate"/></g><g transform="translate(78 0)"><rect width="77" height="65" transform="translate(-0.158 0)" fill="#ffac80"/><text transform="translate(5.842 22)" font-size="9" font-family="IBMPlexSans, IBM Plex Sans"><tspan x="0" y="0">Best shot by the </tspan><tspan x="0" y="11">player in the </tspan><tspan x="0" y="22">match</tspan></text><rect width="77" height="8" transform="translate(-0.158 0)" stroke="rgba(0,0,0,0)" stroke-width="1" opacity="0.35" style="mix-blend-mode:overlay;isolation:isolate"/></g><g transform="translate(0)"><rect width="74" height="65" transform="translate(-0.158 0)" fill="#ffac80"/><text transform="translate(5.842 13)" font-size="9" font-family="IBMPlexSans, IBM Plex Sans"><tspan x="0" y="9">The </tspan><tspan x="0" y="20">percentage </tspan><tspan x="0" y="31">of success </tspan><tspan x="0" y="42">stroke </tspan></text><rect width="74" height="8" transform="translate(-0.158 0)" stroke="rgba(0,0,0,0)" stroke-width="1" opacity="0.35" style="mix-blend-mode:overlay;isolation:isolate"/></g><g transform="translate(-78 0)"><rect width="74" height="65" transform="translate(-0.158 0)" fill="#f89b39"/><text transform="translate(6.842 13)" font-size="9" font-family="IBMPlexSans, IBM Plex Sans"><tspan x="0" y="9">Meeting any </tspan><tspan x="0" y="20">Top players in </tspan><tspan x="0" y="31">matches </tspan></text><rect width="74" height="9" transform="translate(-0.158 0)" stroke="rgba(0,0,0,0)" stroke-width="1" opacity="0.35" style="mix-blend-mode:overlay;isolation:isolate"/></g><g transform="translate(-158 0)"><rect width="77" height="65" transform="translate(-0.158 0)" fill="#f88"/><text transform="translate(5.842 22)" font-size="9" font-family="IBMPlexSans, IBM Plex Sans"><tspan x="0" y="0">Discuss the </tspan><tspan x="0" y="11">players</tspan></text><rect width="77" height="11" transform="translate(-0.158 0)" stroke="rgba(0,0,0,0)" stroke-width="1" opacity="0.35" style="mix-blend-mode:overlay;isolation:isolate"/></g><g transform="translate(158 68)"><rect width="74" height="68" transform="translate(-0.158 0)" fill="#f88"/><text transform="translate(7.842 12)" font-size="9" font-family="IBMPlexSans, IBM Plex Sans"><tspan x="0" y="9">Writing </tspan><tspan x="0" y="20">comments </tspan><tspan x="0" y="31">on social </tspan><tspan x="0" y="42">platforms</tspan></text><rect width="74" height="9" transform="translate(-0.158 0)" stroke="rgba(0,0,0,0)" stroke-width="1" opacity="0.35" style="mix-blend-mode:overlay;isolation:isolate"/></g></g></g></g></g></svg>