<svg xmlns="http://www.w3.org/2000/svg" width="1236" height="866" viewBox="0 0 1236 866"><g transform="translate(-65 -19288)"><rect width="1236" height="866" transform="translate(65 19288)" fill="#f8f8f8"/><g transform="translate(-1 322)"><g transform="translate(-6272 14423.105)"><g transform="translate(6499.438 5212.42)"><path d="M6499.989,5273h955.989" transform="translate(-6499.989 -5273)" fill="none" stroke="#e8e8e8" stroke-width="1"/></g><text transform="translate(6601 5237.895)" fill="#212121" font-size="15" font-family="Calibri"><tspan x="-72.217" y="0">Matchbeats</tspan></text><text transform="translate(6866 5237.895)" fill="#212121" font-size="15" font-family="Calibri"><tspan x="-87.546" y="0">MatchBeats++</tspan></text><text transform="translate(6715 5238.895)" fill="#212121" font-size="16" font-family="Calibri"><tspan x="-31.648" y="0">Stats</tspan></text><text transform="translate(6985 5237.895)" fill="#212121" font-size="15" font-family="Calibri"><tspan x="-83.32" y="0">Head to Head</tspan></text><text transform="translate(7106 5237.895)" fill="#212121" font-size="15" font-family="Calibri"><tspan x="-81.409" y="0">Rally Analysis</tspan></text><text transform="translate(7237 5237.895)" fill="#212121" font-size="15" font-family="Calibri"><tspan x="-100.02" y="0">Stroke Summary</tspan></text><text transform="translate(7361 5237.895)" fill="#212121" font-size="15" font-family="Calibri"><tspan x="-74.487" y="0">Court Vision</tspan></text><text transform="translate(7466 5237.895)" fill="#212121" font-size="15" font-family="Calibri"><tspan x="-63.713" y="0">Social Hub</tspan></text><path d="M5,0H45a5,5,0,0,1,5,5V171a0,0,0,0,1,0,0H0a0,0,0,0,1,0,0V5A5,5,0,0,1,5,0Z" transform="translate(6540 5040.895)" fill="#e8782d"/><path d="M5,0H44a5,5,0,0,1,5,5V171a0,0,0,0,1,0,0H0a0,0,0,0,1,0,0V5A5,5,0,0,1,5,0Z" transform="translate(6674 5040.895)" fill="#e8782d"/><path d="M5,0H44a5,5,0,0,1,5,5V171a0,0,0,0,1,0,0H0a0,0,0,0,1,0,0V5A5,5,0,0,1,5,0Z" transform="translate(6797 5040.895)" fill="#e8782d"/><path d="M5,0H45a5,5,0,0,1,5,5V122a0,0,0,0,1,0,0H0a0,0,0,0,1,0,0V5A5,5,0,0,1,5,0Z" transform="translate(6918 5089.895)" fill="#e8782d"/><path d="M5,0H45a5,5,0,0,1,5,5V70a0,0,0,0,1,0,0H0a0,0,0,0,1,0,0V5A5,5,0,0,1,5,0Z" transform="translate(7040 5141.895)" fill="#e8782d"/><path d="M5,0H45a5,5,0,0,1,5,5V26a0,0,0,0,1,0,0H0a0,0,0,0,1,0,0V5A5,5,0,0,1,5,0Z" transform="translate(7162 5185.895)" fill="#e8782d"/><path d="M5,0H44a5,5,0,0,1,5,5V26a0,0,0,0,1,0,0H0a0,0,0,0,1,0,0V5A5,5,0,0,1,5,0Z" transform="translate(7299 5185.895)" fill="#e8782d"/><path d="M5,0H44a5,5,0,0,1,5,5V21a0,0,0,0,1,0,0H0a0,0,0,0,1,0,0V5A5,5,0,0,1,5,0Z" transform="translate(7410 5190.895)" fill="#e8782d"/><g transform="translate(6443 5034.653)"><text transform="translate(25 182.242)" fill="#212121" font-size="16" font-family="Calibri"><tspan x="-8.109" y="0">0</tspan></text><text transform="translate(25 136.242)" fill="#212121" font-size="16" font-family="Calibri"><tspan x="-24.328" y="0">200</tspan></text><text transform="translate(25 91.242)" fill="#212121" font-size="16" font-family="Calibri"><tspan x="-24.328" y="0">400</tspan></text><text transform="translate(25 45.242)" fill="#212121" font-size="16" font-family="Calibri"><tspan x="-24.328" y="0">600</tspan></text><text transform="translate(25 -0.758)" fill="#212121" font-size="16" font-family="Calibri"><tspan x="-24.328" y="0">800</tspan></text></g><text transform="translate(6564 5026.895)" fill="#212121" font-size="18" font-family="Calibri"><tspan x="-13.685" y="0">787</tspan></text><text transform="translate(6697 5026.895)" fill="#212121" font-size="18" font-family="Calibri"><tspan x="-13.685" y="0">787</tspan></text><text transform="translate(6819 5026.895)" fill="#212121" font-size="18" font-family="Calibri"><tspan x="-13.685" y="0">787</tspan></text><text transform="translate(7320 5026.895)" fill="#212121" font-size="18" font-family="Calibri"><tspan x="-149.985" y="0">No. of matches coverage by Innovations*</tspan></text><text transform="translate(6942 5076.895)" fill="#212121" font-size="18" font-family="Calibri"><tspan x="-13.685" y="0">453</tspan></text><text transform="translate(7064 5127.895)" fill="#212121" font-size="18" font-family="Calibri"><tspan x="-13.685" y="0">266</tspan></text><text transform="translate(7187 5172.895)" fill="#212121" font-size="18" font-family="Calibri"><tspan x="-9.123" y="0">89</tspan></text><text transform="translate(7324 5172.895)" fill="#212121" font-size="18" font-family="Calibri"><tspan x="-9.123" y="0">89</tspan></text><text transform="translate(7434 5177.895)" fill="#212121" font-size="18" font-family="Calibri"><tspan x="-9.123" y="0">72</tspan></text></g><g transform="translate(170 19014)"><g transform="translate(0 149.436)"><g transform="translate(6.018 24.071)"><path d="M6813,3839.683l31.935-35.03,32.552-4,31.578,11.9,30.659-30.172,32.335,24.765,31.2-21.2,31.579-18.385,31.091-11.761,31.686,42.663,31.362-31.9,31.714,37.147,31.171-51.207,31.947,57.39,30.887-26.61" transform="translate(-6809.172 -3748.996)" fill="none" stroke="#e8782d" stroke-width="1"/><g transform="translate(0 0)"><circle cx="4" cy="4" r="4" transform="translate(0.982 84.492)" fill="#e8782d"/><circle cx="4" cy="4" r="4" transform="translate(30.982 51.492)" fill="#e8782d"/><circle cx="4" cy="4" r="4" transform="translate(61.982 48.492)" fill="#e8782d"/><circle cx="4" cy="4" r="4" transform="translate(95.982 59.492)" fill="#e8782d"/><circle cx="4" cy="4" r="4" transform="translate(125.982 29.492)" fill="#e8782d"/><circle cx="4" cy="4" r="4" transform="translate(158.982 53.492)" fill="#e8782d"/><circle cx="4" cy="4" r="4" transform="translate(189.982 32.492)" fill="#e8782d"/><circle cx="4" cy="4" r="4" transform="translate(221.982 14.492)" fill="#e8782d"/><circle cx="4" cy="4" r="4" transform="translate(251.982 2.492)" fill="#e8782d"/><circle cx="4" cy="4" r="4" transform="translate(283.982 42.492)" fill="#e8782d"/><circle cx="4" cy="4" r="4" transform="translate(314.982 14.492)" fill="#e8782d"/><circle cx="4" cy="4" r="4" transform="translate(346.982 48.492)" fill="#e8782d"/><circle cx="4" cy="4" r="4" transform="translate(377.982 0.492)" fill="#e8782d"/><circle cx="4" cy="4" r="4" transform="translate(410.982 55.492)" fill="#e8782d"/><circle cx="4" cy="4" r="4" transform="translate(440.982 29.492)" fill="#e8782d"/></g></g><g transform="translate(2.006 195.597)"><text transform="translate(14.994 11.966)" fill="#212121" font-size="13" font-family="Calibri"><tspan x="-14.587" y="0">D1</tspan></text><text transform="translate(42.994 11.966)" fill="#212121" font-size="13" font-family="Calibri"><tspan x="-14.587" y="0">D2</tspan></text><text transform="translate(70.994 11.966)" fill="#212121" font-size="13" font-family="Calibri"><tspan x="-14.587" y="0">D3</tspan></text><text transform="translate(98.994 11.966)" fill="#212121" font-size="13" font-family="Calibri"><tspan x="-14.587" y="0">D4</tspan></text><text transform="translate(125.994 11.966)" fill="#212121" font-size="13" font-family="Calibri"><tspan x="-14.587" y="0">D5</tspan></text><text transform="translate(153.994 11.966)" fill="#212121" font-size="13" font-family="Calibri"><tspan x="-14.587" y="0">D6</tspan></text><text transform="translate(181.994 11.966)" fill="#212121" font-size="13" font-family="Calibri"><tspan x="-14.587" y="0">D7</tspan></text><text transform="translate(209.994 11.966)" fill="#212121" font-size="13" font-family="Calibri"><tspan x="-14.587" y="0">D8</tspan></text><text transform="translate(237.994 11.966)" fill="#212121" font-size="13" font-family="Calibri"><tspan x="-14.587" y="0">D9</tspan></text><text transform="translate(274.994 13.966)" fill="#212121" font-size="15" font-family="Calibri"><tspan x="-24.434" y="0">D10</tspan></text><text transform="translate(311.994 13.966)" fill="#212121" font-size="15" font-family="Calibri"><tspan x="-24.434" y="0">D11</tspan></text><text transform="translate(347.994 13.966)" fill="#212121" font-size="15" font-family="Calibri"><tspan x="-24.434" y="0">D12</tspan></text><text transform="translate(384.994 13.966)" fill="#212121" font-size="15" font-family="Calibri"><tspan x="-24.434" y="0">D13</tspan></text><text transform="translate(421.994 13.966)" fill="#212121" font-size="15" font-family="Calibri"><tspan x="-24.434" y="0">D14</tspan></text><text transform="translate(458.994 13.966)" fill="#212121" font-size="15" font-family="Calibri"><tspan x="-24.434" y="0">D15</tspan></text></g><g transform="translate(0 0)"><text transform="translate(20 153.564)" fill="#212121" font-size="13" font-family="Calibri"><tspan x="-19.767" y="0">193</tspan></text><text transform="translate(52 124.564)" fill="#212121" font-size="13" font-family="Calibri"><tspan x="-19.767" y="0">275</tspan></text><text transform="translate(82 130.564)" fill="#212121" font-size="13" font-family="Calibri"><tspan x="-19.767" y="0">258</tspan></text><text transform="translate(116 122.564)" fill="#212121" font-size="13" font-family="Calibri"><tspan x="-19.767" y="0">282</tspan></text><text transform="translate(145 133.564)" fill="#212121" font-size="13" font-family="Calibri"><tspan x="-19.767" y="0">251</tspan></text><text transform="translate(177 118.564)" fill="#212121" font-size="13" font-family="Calibri"><tspan x="-19.767" y="0">296</tspan></text><text transform="translate(210 123.564)" fill="#212121" font-size="13" font-family="Calibri"><tspan x="-19.767" y="0">277</tspan></text><text transform="translate(240 93.564)" fill="#212121" font-size="13" font-family="Calibri"><tspan x="-19.767" y="0">372</tspan></text><text transform="translate(271 120.564)" fill="#212121" font-size="13" font-family="Calibri"><tspan x="-19.767" y="0">287</tspan></text><text transform="translate(305 98.564)" fill="#212121" font-size="13" font-family="Calibri"><tspan x="-19.767" y="0">355</tspan></text><text transform="translate(337 107.564)" fill="#212121" font-size="13" font-family="Calibri"><tspan x="-19.767" y="0">332</tspan></text><text transform="translate(366 150.564)" fill="#212121" font-size="13" font-family="Calibri"><tspan x="-19.767" y="0">202</tspan></text><text transform="translate(397 124.564)" fill="#212121" font-size="13" font-family="Calibri"><tspan x="-19.767" y="0">271</tspan></text><text transform="translate(430 160.564)" fill="#212121" font-size="13" font-family="Calibri"><tspan x="-19.767" y="0">172</tspan></text><text transform="translate(461 153.564)" fill="#212121" font-size="13" font-family="Calibri"><tspan x="-19.767" y="0">193</tspan></text><text transform="translate(461 42.564)" fill="#212121" font-size="13" font-family="Calibri"><tspan x="-19.767" y="0">398</tspan></text><text transform="translate(430 65.564)" fill="#212121" font-size="13" font-family="Calibri"><tspan x="-19.767" y="0">326</tspan></text><text transform="translate(397 11.564)" fill="#212121" font-size="13" font-family="Calibri"><tspan x="-19.767" y="0">488</tspan></text><text transform="translate(366 61.564)" fill="#212121" font-size="13" font-family="Calibri"><tspan x="-19.767" y="0">343</tspan></text><text transform="translate(336 23.564)" fill="#212121" font-size="13" font-family="Calibri"><tspan x="-19.767" y="0">450</tspan></text><text transform="translate(306 55.564)" fill="#212121" font-size="13" font-family="Calibri"><tspan x="-19.767" y="0">360</tspan></text><text transform="translate(272 13.564)" fill="#212121" font-size="13" font-family="Calibri"><tspan x="-19.767" y="0">482</tspan></text><text transform="translate(240 26.564)" fill="#212121" font-size="13" font-family="Calibri"><tspan x="-19.767" y="0">445</tspan></text><text transform="translate(209 43.564)" fill="#212121" font-size="13" font-family="Calibri"><tspan x="-19.767" y="0">394</tspan></text><text transform="translate(177 63.564)" fill="#212121" font-size="13" font-family="Calibri"><tspan x="-19.767" y="0">334</tspan></text><text transform="translate(145 41.564)" fill="#212121" font-size="13" font-family="Calibri"><tspan x="-19.767" y="0">403</tspan></text><text transform="translate(116 70.564)" fill="#212121" font-size="13" font-family="Calibri"><tspan x="-19.767" y="0">318</tspan></text><text transform="translate(82 58.564)" fill="#212121" font-size="13" font-family="Calibri"><tspan x="-19.767" y="0">349</tspan></text><text transform="translate(52 62.564)" fill="#212121" font-size="13" font-family="Calibri"><tspan x="-19.767" y="0">339</tspan></text><text transform="translate(21 96.564)" fill="#212121" font-size="13" font-family="Calibri"><tspan x="-19.767" y="0">240</tspan></text></g><g transform="translate(6.018 64.188)"><path d="M6806.5,3559.185l31.677-28.22,31.579,6.814,31.771-9.086,30.924,10.766,31.708-15.694,31.467,7.279,31.82-32.267,31.211,28.956,31.4-23.6,31.931,7.551,31.021,45.05,31.355-24.573,31.228,34.971,32.188-8.063" transform="translate(-6802.22 -3493.871)" fill="none" stroke="#548235" stroke-width="1"/><g transform="translate(0 0)"><circle cx="4" cy="4" r="4" transform="translate(-0.018 61.375)" fill="#548235"/><circle cx="4" cy="4" r="4" transform="translate(31.982 33.375)" fill="#548235"/><circle cx="4" cy="4" r="4" transform="translate(61.982 39.375)" fill="#548235"/><circle cx="4" cy="4" r="4" transform="translate(96.982 32.375)" fill="#548235"/><circle cx="4" cy="4" r="4" transform="translate(124.982 41.375)" fill="#548235"/><circle cx="4" cy="4" r="4" transform="translate(156.982 26.375)" fill="#548235"/><circle cx="4" cy="4" r="4" transform="translate(187.982 33.375)" fill="#548235"/><circle cx="4" cy="4" r="4" transform="translate(220.982 2.375)" fill="#548235"/><circle cx="4" cy="4" r="4" transform="translate(251.982 29.375)" fill="#548235"/><circle cx="4" cy="4" r="4" transform="translate(283.982 7.375)" fill="#548235"/><circle cx="4" cy="4" r="4" transform="translate(315.982 15.375)" fill="#548235"/><circle cx="4" cy="4" r="4" transform="translate(346.982 57.375)" fill="#548235"/><circle cx="4" cy="4" r="4" transform="translate(377.982 35.375)" fill="#548235"/><circle cx="4" cy="4" r="4" transform="translate(409.982 68.375)" fill="#548235"/><circle cx="4" cy="4" r="4" transform="translate(439.982 61.375)" fill="#548235"/></g></g></g><g transform="translate(2.963 113.205)"><g transform="translate(0 0)"><text transform="translate(45.537 12.795)" fill="#212121" font-size="14" font-family="Calibri"><tspan x="-28.383" y="0">2021</tspan></text><g transform="translate(0 1)"><circle cx="4" cy="4" r="4" transform="translate(-0.463 3.795)" fill="#e8782d"/><path d="M1485.174,19368.129h13.182" transform="translate(-1488.137 -19360.205)" fill="none" stroke="#e8782d" stroke-width="1"/></g></g><g transform="translate(64.5 0)"><text transform="translate(45.537 12.795)" fill="#212121" font-size="14" font-family="Calibri"><tspan x="-28.383" y="0">2020</tspan></text><g transform="translate(0 1)"><circle cx="4" cy="4" r="4" transform="translate(-0.463 3.795)" fill="#548235"/><path d="M1485.174,19368.129h13.182" transform="translate(-1488.137 -19360.205)" fill="none" stroke="#548235" stroke-width="1"/></g></g></g><g transform="translate(0 8)"><text transform="translate(114 69)" fill="#212121" font-size="46" font-family="Calibri"><tspan x="-114.438" y="0">38.2%</tspan></text><text transform="translate(48 15)" fill="#212121" font-size="16" font-family="Calibri"><tspan x="-47.883" y="0">Visitors</tspan></text><g transform="translate(-4 1)"><text transform="translate(165 65)" fill="#212121" font-size="16" font-family="Calibri"><tspan x="0" y="0">Increased</tspan></text><path d="M.562,12.562a12,12,0,1,1,12,12A12,12,0,0,1,.562,12.562Zm6.948,1.4,3.5-3.653v8.835A1.159,1.159,0,0,0,12.175,20.3h.774a1.159,1.159,0,0,0,1.161-1.161V10.308l3.5,3.653a1.163,1.163,0,0,0,1.66.019l.527-.532a1.157,1.157,0,0,0,0-1.64L13.385,5.387a1.156,1.156,0,0,0-1.64,0L5.319,11.808a1.157,1.157,0,0,0,0,1.64l.527.532A1.168,1.168,0,0,0,7.511,13.961Z" transform="translate(133.438 44.438)" fill="#70b045"/></g><text transform="translate(462 74)" fill="#212121" font-size="26" font-family="Calibri"><tspan x="-81.986" y="0">5.67Mn</tspan></text></g></g><g transform="translate(742.675 19014)"><g transform="translate(0 130.381)"><g transform="translate(0 0)"><g transform="translate(0 0)"><g transform="translate(6.018 27.08)"><path d="M6813,3842.038l30.47-42.584,30.861-2.08,30.114,14.184,31.736-27.66,30.323,33.587,30.135-29.033,30.7-4.325,30.9-28.367,30.738,62.744,30.2-39.6,30.2,54.842,31.922-92.394,29.137,120.835,31.069-64.951" transform="translate(-6809.159 -3737.728)" fill="none" stroke="#e8782d" stroke-width="1"/><g transform="translate(0 0)"><circle cx="4" cy="4" r="4" transform="translate(0.308 98.539)" fill="#e8782d"/><circle cx="4" cy="4" r="4" transform="translate(29.308 57.539)" fill="#e8782d"/><circle cx="4" cy="4" r="4" transform="translate(61.308 55.539)" fill="#e8782d"/><circle cx="4" cy="4" r="4" transform="translate(91.308 71.539)" fill="#e8782d"/><circle cx="4" cy="4" r="4" transform="translate(123.308 41.539)" fill="#e8782d"/><circle cx="4" cy="4" r="4" transform="translate(152.308 75.539)" fill="#e8782d"/><circle cx="4" cy="4" r="4" transform="translate(183.308 45.539)" fill="#e8782d"/><circle cx="4" cy="4" r="4" transform="translate(211.308 41.539)" fill="#e8782d"/><circle cx="4" cy="4" r="4" transform="translate(244.308 14.539)" fill="#e8782d"/><circle cx="4" cy="4" r="4" transform="translate(276.308 75.539)" fill="#e8782d"/><circle cx="4" cy="4" r="4" transform="translate(306.308 36.539)" fill="#e8782d"/><circle cx="4" cy="4" r="4" transform="translate(336.308 90.539)" fill="#e8782d"/><circle cx="4" cy="4" r="4" transform="translate(368.308 0.539)" fill="#e8782d"/><circle cx="4" cy="4" r="4" transform="translate(397.308 119.539)" fill="#e8782d"/><circle cx="4" cy="4" r="4" transform="translate(429.308 55.539)" fill="#e8782d"/></g></g><text transform="translate(13.325 112.619)" fill="#212121" font-size="14" font-family="Calibri"><tspan x="-7.096" y="0">1</tspan></text><text transform="translate(42.325 71.619)" fill="#212121" font-size="14" font-family="Calibri"><tspan x="-7.096" y="0">2</tspan></text><text transform="translate(74.325 69.619)" fill="#212121" font-size="14" font-family="Calibri"><tspan x="-7.096" y="0">2</tspan></text><text transform="translate(104.325 82.619)" fill="#212121" font-size="14" font-family="Calibri"><tspan x="-7.096" y="0">1</tspan></text><text transform="translate(135.325 56.619)" fill="#212121" font-size="14" font-family="Calibri"><tspan x="-7.096" y="0">2</tspan></text><text transform="translate(165.325 86.619)" fill="#212121" font-size="14" font-family="Calibri"><tspan x="-7.096" y="0">1</tspan></text><text transform="translate(197.325 58.619)" fill="#212121" font-size="14" font-family="Calibri"><tspan x="-7.096" y="0">2</tspan></text><text transform="translate(225.325 56.619)" fill="#212121" font-size="14" font-family="Calibri"><tspan x="-7.096" y="0">2</tspan></text><text transform="translate(258.325 28.619)" fill="#212121" font-size="14" font-family="Calibri"><tspan x="-7.096" y="0">2</tspan></text><text transform="translate(293.325 71.619)" fill="#212121" font-size="14" font-family="Calibri"><tspan x="-7.096" y="0">1</tspan></text><text transform="translate(319.325 50.619)" fill="#212121" font-size="14" font-family="Calibri"><tspan x="-7.096" y="0">2</tspan></text><text transform="translate(380.325 12.619)" fill="#212121" font-size="14" font-family="Calibri"><tspan x="-7.096" y="0">2</tspan></text><text transform="translate(442.325 68.619)" fill="#212121" font-size="14" font-family="Calibri"><tspan x="-7.096" y="0">2</tspan></text><text transform="translate(449.325 181.619)" fill="#212121" font-size="15" font-family="Calibri"><tspan x="-18.992" y="0">0.7</tspan></text><text transform="translate(418.325 200.619)" fill="#212121" font-size="14" font-family="Calibri"><tspan x="-24.821" y="0">0.46</tspan></text><text transform="translate(390.325 141.619)" fill="#212121" font-size="15" font-family="Calibri"><tspan x="-18.992" y="0">1.3</tspan></text><text transform="translate(328.325 142.619)" fill="#212121" font-size="14" font-family="Calibri"><tspan x="-24.821" y="0">1.32</tspan></text><text transform="translate(300.325 127.619)" fill="#212121" font-size="14" font-family="Calibri"><tspan x="-24.821" y="0">1.57</tspan></text><text transform="translate(265.325 140.619)" fill="#212121" font-size="14" font-family="Calibri"><tspan x="-24.821" y="0">1.17</tspan></text><text transform="translate(236.325 104.619)" fill="#212121" font-size="14" font-family="Calibri"><tspan x="-24.821" y="0">1.73</tspan></text><text transform="translate(205.325 143.619)" fill="#212121" font-size="14" font-family="Calibri"><tspan x="-24.821" y="0">1.14</tspan></text><text transform="translate(174.325 128.619)" fill="#212121" font-size="14" font-family="Calibri"><tspan x="-24.821" y="0">1.34</tspan></text><text transform="translate(143.325 139.619)" fill="#212121" font-size="14" font-family="Calibri"><tspan x="-24.821" y="0">1.18</tspan></text><text transform="translate(116.325 122.619)" fill="#212121" font-size="14" font-family="Calibri"><tspan x="-24.821" y="0">1.46</tspan></text><text transform="translate(81.325 134.619)" fill="#212121" font-size="14" font-family="Calibri"><tspan x="-24.821" y="0">1.25</tspan></text><text transform="translate(51.325 119.619)" fill="#212121" font-size="14" font-family="Calibri"><tspan x="-24.821" y="0">1.44</tspan></text><text transform="translate(19.325 165.619)" fill="#212121" font-size="15" font-family="Calibri"><tspan x="-18.992" y="0">0.9</tspan></text><text transform="translate(357.325 184.619)" fill="#212121" font-size="14" font-family="Calibri"><tspan x="-24.821" y="0">0.64</tspan></text><text transform="translate(412.325 132.619)" fill="#212121" font-size="14" font-family="Calibri"><tspan x="-7.096" y="0">1</tspan></text><text transform="translate(349.325 105.619)" fill="#212121" font-size="14" font-family="Calibri"><tspan x="-7.096" y="0">1</tspan></text></g><g transform="translate(6.018 68.199)"><path d="M6812.782,3836.514l31.071-45.832,30.789,16.87,29.805-17.573,32.335,23.76,29.84-11.81,30.647,15.465,30.085-48.292,31.914,44.636,29.945-34.515,30.052,23.689,30.05,55.849,32.194-55.849,30.263,70.752,30.648-22.073" transform="translate(-6809.201 -3764.505)" fill="none" stroke="#548235" stroke-width="1"/><g transform="translate(0 0)"><circle cx="4" cy="4" r="4" transform="translate(0.308 66.42)" fill="#548235"/><circle cx="4" cy="4" r="4" transform="translate(30.308 22.42)" fill="#548235"/><circle cx="4" cy="4" r="4" transform="translate(60.308 38.42)" fill="#548235"/><circle cx="4" cy="4" r="4" transform="translate(91.308 22.42)" fill="#548235"/><circle cx="4" cy="4" r="4" transform="translate(123.308 44.42)" fill="#548235"/><circle cx="4" cy="4" r="4" transform="translate(152.308 33.42)" fill="#548235"/><circle cx="4" cy="4" r="4" transform="translate(183.308 48.42)" fill="#548235"/><circle cx="4" cy="4" r="4" transform="translate(246.308 43.42)" fill="#548235"/><circle cx="4" cy="4" r="4" transform="translate(213.308 0.42)" fill="#548235"/><circle cx="4" cy="4" r="4" transform="translate(276.308 11.42)" fill="#548235"/><circle cx="4" cy="4" r="4" transform="translate(306.308 34.42)" fill="#548235"/><circle cx="4" cy="4" r="4" transform="translate(335.308 90.42)" fill="#548235"/><circle cx="4" cy="4" r="4" transform="translate(367.308 35.42)" fill="#548235"/><circle cx="4" cy="4" r="4" transform="translate(399.308 103.42)" fill="#548235"/><circle cx="4" cy="4" r="4" transform="translate(429.308 83.42)" fill="#548235"/></g></g></g><g transform="translate(0 214.652)"><text transform="translate(15.325 11.966)" fill="#212121" font-size="13" font-family="Calibri"><tspan x="-14.587" y="0">D1</tspan></text><text transform="translate(44.325 11.966)" fill="#212121" font-size="13" font-family="Calibri"><tspan x="-14.587" y="0">D2</tspan></text><text transform="translate(77.325 11.966)" fill="#212121" font-size="13" font-family="Calibri"><tspan x="-14.587" y="0">D3</tspan></text><text transform="translate(99.325 11.966)" fill="#212121" font-size="13" font-family="Calibri"><tspan x="-14.587" y="0">D4</tspan></text><text transform="translate(127.325 11.966)" fill="#212121" font-size="13" font-family="Calibri"><tspan x="-14.587" y="0">D5</tspan></text><text transform="translate(154.325 11.966)" fill="#212121" font-size="13" font-family="Calibri"><tspan x="-14.587" y="0">D6</tspan></text><text transform="translate(181.325 11.966)" fill="#212121" font-size="13" font-family="Calibri"><tspan x="-14.587" y="0">D7</tspan></text><text transform="translate(209.325 11.966)" fill="#212121" font-size="13" font-family="Calibri"><tspan x="-14.587" y="0">D8</tspan></text><text transform="translate(234.325 11.966)" fill="#212121" font-size="13" font-family="Calibri"><tspan x="-14.587" y="0">D9</tspan></text><text transform="translate(274.325 13.966)" fill="#212121" font-size="15" font-family="Calibri"><tspan x="-24.434" y="0">D10</tspan></text><text transform="translate(311.325 13.966)" fill="#212121" font-size="15" font-family="Calibri"><tspan x="-24.434" y="0">D11</tspan></text><text transform="translate(345.325 13.966)" fill="#212121" font-size="15" font-family="Calibri"><tspan x="-24.434" y="0">D12</tspan></text><text transform="translate(380.325 13.966)" fill="#212121" font-size="15" font-family="Calibri"><tspan x="-24.434" y="0">D13</tspan></text><text transform="translate(413.325 13.966)" fill="#212121" font-size="15" font-family="Calibri"><tspan x="-24.434" y="0">D14</tspan></text><text transform="translate(453.325 13.966)" fill="#212121" font-size="15" font-family="Calibri"><tspan x="-24.434" y="0">D15</tspan></text></g></g><g transform="translate(0 8)"><g transform="translate(0)"><text transform="translate(114.325 69)" fill="#212121" font-size="46" font-family="Calibri"><tspan x="-114.438" y="0">24.1%</tspan></text><text transform="translate(67.325 15)" fill="#212121" font-size="16" font-family="Calibri"><tspan x="-67.203" y="0">Pageviews</tspan></text><g transform="translate(-3.675)"><text transform="translate(165 65)" fill="#212121" font-size="16" font-family="Calibri"><tspan x="0" y="0">Increased</tspan></text><path d="M.562,12.562a12,12,0,1,1,12,12A12,12,0,0,1,.562,12.562Zm6.948,1.4,3.5-3.653v8.835A1.159,1.159,0,0,0,12.175,20.3h.774a1.159,1.159,0,0,0,1.161-1.161V10.308l3.5,3.653a1.163,1.163,0,0,0,1.66.019l.527-.532a1.157,1.157,0,0,0,0-1.64L13.385,5.387a1.156,1.156,0,0,0-1.64,0L5.319,11.808a1.157,1.157,0,0,0,0,1.64l.527.532A1.168,1.168,0,0,0,7.511,13.961Z" transform="translate(133.438 44.438)" fill="#70b045"/></g></g><text transform="translate(450.325 74)" fill="#212121" font-size="26" font-family="Calibri"><tspan x="-81.986" y="0">22.6Mn</tspan></text></g><g transform="translate(3.289 113.205)"><g transform="translate(0 0)"><text transform="translate(45.537 12.795)" fill="#212121" font-size="14" font-family="Calibri"><tspan x="-28.383" y="0">2021</tspan></text><g transform="translate(0 1)"><circle cx="4" cy="4" r="4" transform="translate(-0.463 3.795)" fill="#e8782d"/><path d="M1485.174,19368.129h13.182" transform="translate(-1488.137 -19360.205)" fill="none" stroke="#e8782d" stroke-width="1"/></g></g><g transform="translate(64.5 0)"><text transform="translate(45.537 12.795)" fill="#212121" font-size="14" font-family="Calibri"><tspan x="-28.383" y="0">2020</tspan></text><g transform="translate(0 1)"><circle cx="4" cy="4" r="4" transform="translate(-0.463 3.795)" fill="#548235"/><path d="M1485.174,19368.129h13.182" transform="translate(-1488.137 -19360.205)" fill="none" stroke="#548235" stroke-width="1"/></g></g></g></g><g transform="translate(6 15891)"><g transform="translate(-6273 -1093)"><g transform="translate(6443 4923)" fill="none" stroke="#707070" stroke-width="1"><rect width="340" height="55" rx="8" stroke="none"/><rect x="0.5" y="0.5" width="339" height="54" rx="7.5" fill="none"/></g><text transform="translate(6483 4957)" fill="#212121" font-size="18" font-family="IBMPlexSans, IBM Plex Sans"><tspan x="0" y="0">Average session duration: 04:36</tspan></text></g><g transform="translate(-5920 -1093)"><g transform="translate(6443 4923)" fill="none" stroke="#707070" stroke-width="1"><rect width="382" height="55" rx="8" stroke="none"/><rect x="0.5" y="0.5" width="381" height="54" rx="7.5" fill="none"/></g><text transform="translate(6483 4957)" fill="#212121" font-size="18" font-family="IBMPlexSans, IBM Plex Sans"><tspan x="0" y="0">Average page views per session: 2.98</tspan></text></g><g transform="translate(-5530 -1093)"><g transform="translate(6443 4923)" fill="none" stroke="#707070" stroke-width="1"><rect width="294" height="55" rx="8" stroke="none"/><rect x="0.5" y="0.5" width="293" height="54" rx="7.5" fill="none"/></g><text transform="translate(6483 4957)" fill="#212121" font-size="18" font-family="IBMPlexSans, IBM Plex Sans"><tspan x="0" y="0">Average bounce rate: 50%</tspan></text></g></g></g></g></svg>